<svg xmlns="http://www.w3.org/2000/svg" xmlns:xlink="http://www.w3.org/1999/xlink" width="1904" zoomAndPan="magnify" viewBox="0 0 1428 331.499995" height="442" preserveAspectRatio="xMidYMid meet" version="1.0"><defs><g/><clipPath id="73324fc52c"><path d="M 1.074219 0 L 266 0 L 266 265 L 1.074219 265 Z M 1.074219 0 " clip-rule="nonzero"/></clipPath><clipPath id="69213052a5"><path d="M 599 48 L 655 48 L 655 95.71875 L 599 95.71875 Z M 599 48 " clip-rule="nonzero"/></clipPath><clipPath id="e2f267fe0b"><rect x="0" width="965" y="0" height="96"/></clipPath></defs><g clip-path="url(#73324fc52c)"><path fill="#000000" d="M 89.34375 0 L 67.269531 22.066406 L 45.203125 44.128906 L 23.148438 66.195312 C 23.148438 66.195312 1.074219 88.257812 1.074219 88.257812 L 1.074219 264.796875 L 177.613281 264.796875 L 199.675781 242.730469 C 199.675781 242.730469 265.871094 176.527344 265.871094 176.527344 L 265.871094 0 Z M 177.601562 176.527344 L 177.613281 176.527344 Z M 111.410156 220.65625 C 111.410156 220.65625 67.269531 220.667969 67.269531 220.667969 C 67.269531 220.667969 67.277344 220.65625 67.277344 220.65625 L 89.34375 198.601562 C 89.34375 198.601562 111.410156 198.59375 111.410156 198.59375 L 133.472656 176.527344 L 133.472656 132.398438 L 89.34375 132.398438 L 111.410156 110.332031 C 111.410156 110.332031 111.417969 110.332031 111.417969 110.332031 L 133.472656 88.277344 L 133.472656 66.203125 L 67.269531 66.203125 L 67.269531 198.609375 L 45.222656 220.667969 L 45.203125 220.667969 L 45.203125 88.257812 L 67.269531 66.195312 L 89.34375 44.128906 L 155.539062 44.128906 L 155.539062 88.269531 L 133.484375 110.324219 L 155.539062 110.324219 L 155.539062 176.527344 L 133.484375 198.59375 L 133.472656 198.59375 C 133.472656 198.59375 111.410156 220.65625 111.410156 220.65625 Z M 221.742188 176.527344 L 199.675781 198.59375 L 177.601562 220.65625 L 155.539062 220.65625 C 155.539062 220.65625 133.472656 220.667969 133.472656 220.667969 C 133.472656 220.667969 133.484375 220.65625 133.484375 220.65625 L 155.539062 198.601562 C 155.539062 198.601562 177.601562 198.59375 177.601562 198.59375 L 199.675781 176.527344 L 199.675781 110.332031 L 177.613281 110.332031 L 177.621094 110.332031 C 177.621094 110.332031 177.601562 110.332031 177.601562 110.332031 L 199.675781 88.269531 L 199.6875 88.269531 L 221.730469 66.214844 L 221.742188 66.214844 C 221.742188 66.214844 221.742188 176.535156 221.742188 176.535156 Z M 199.675781 66.195312 L 177.621094 88.257812 L 177.601562 88.257812 L 177.601562 66.195312 L 177.613281 66.195312 C 177.613281 66.195312 199.675781 44.128906 199.675781 44.128906 L 221.742188 44.128906 Z M 199.675781 66.195312 " fill-opacity="1" fill-rule="nonzero"/></g><g transform="matrix(1, 0, 0, 1, 321, 38)"><g clip-path="url(#e2f267fe0b)"><g fill="#000000" fill-opacity="1"><g transform="translate(1.061422, 65.01601)"><g><path d="M 26.734375 -40.484375 C 25.242188 -40.484375 23.972656 -41.003906 22.921875 -42.046875 C 21.878906 -43.097656 21.359375 -44.367188 21.359375 -45.859375 C 21.359375 -47.296875 21.878906 -48.523438 22.921875 -49.546875 C 23.972656 -50.566406 25.242188 -51.078125 26.734375 -51.078125 C 28.160156 -51.078125 29.382812 -50.566406 30.40625 -49.546875 C 31.4375 -48.523438 31.953125 -47.296875 31.953125 -45.859375 C 31.953125 -44.367188 31.4375 -43.097656 30.40625 -42.046875 C 29.382812 -41.003906 28.160156 -40.484375 26.734375 -40.484375 Z M 40.328125 -40.484375 C 38.835938 -40.484375 37.566406 -41.003906 36.515625 -42.046875 C 35.472656 -43.097656 34.953125 -44.367188 34.953125 -45.859375 C 34.953125 -47.296875 35.472656 -48.523438 36.515625 -49.546875 C 37.566406 -50.566406 38.835938 -51.078125 40.328125 -51.078125 C 41.765625 -51.078125 42.992188 -50.566406 44.015625 -49.546875 C 45.035156 -48.523438 45.546875 -47.296875 45.546875 -45.859375 C 45.546875 -44.367188 45.035156 -43.097656 44.015625 -42.046875 C 42.992188 -41.003906 41.765625 -40.484375 40.328125 -40.484375 Z M 3.765625 -30.421875 L 13.828125 -30.265625 L 13.828125 -27.421875 C 13.828125 -24.046875 13.96875 -21.226562 14.25 -18.96875 C 14.53125 -16.71875 15.101562 -14.9375 15.96875 -13.625 C 16.84375 -12.320312 18.160156 -11.398438 19.921875 -10.859375 C 21.691406 -10.328125 24.039062 -10.0625 26.96875 -10.0625 L 48.546875 -10.0625 L 48.546875 -33.40625 L 59.765625 -36.484375 L 59.765625 -9.984375 C 59.765625 -3.328125 57.050781 0 51.625 0 L 26.96875 0 C 22.664062 0 19.09375 -0.5 16.25 -1.5 C 13.40625 -2.5 11.132812 -3.894531 9.4375 -5.6875 C 7.75 -7.476562 6.507812 -9.523438 5.71875 -11.828125 C 4.925781 -14.128906 4.398438 -16.585938 4.140625 -19.203125 C 3.890625 -21.816406 3.765625 -24.453125 3.765625 -27.109375 Z M 3.765625 -30.421875 "/></g></g></g><g fill="#000000" fill-opacity="1"><g transform="translate(64.741957, 65.01601)"><g><path d="M 3.84375 0 L 3.84375 -10.0625 L 13.140625 -10.0625 L 13.140625 -40.40625 L 24.890625 -43.46875 L 24.890625 -10.0625 L 35.953125 -10.0625 L 35.953125 -54.609375 L 47.015625 -57.6875 L 47.015625 -9.984375 C 47.015625 -3.328125 44.296875 0 38.859375 0 Z M 3.84375 0 "/></g></g></g><g fill="#000000" fill-opacity="1"><g transform="translate(115.594212, 65.01601)"><g><path d="M 21.8125 16.046875 C 17.101562 16.046875 12.367188 15.203125 7.609375 13.515625 L 9.296875 6.21875 C 13.140625 7.289062 16.671875 7.828125 19.890625 7.828125 C 22.859375 7.828125 25.125 7.300781 26.6875 6.25 C 28.25 5.207031 29.054688 3.125 29.109375 0 L 20.125 0 C 16.644531 0 13.6875 -0.753906 11.25 -2.265625 C 8.820312 -3.773438 6.976562 -5.796875 5.71875 -8.328125 C 4.46875 -10.867188 3.84375 -13.703125 3.84375 -16.828125 C 3.84375 -20.660156 4.554688 -24.0625 5.984375 -27.03125 C 7.421875 -30.007812 9.625 -32.328125 12.59375 -33.984375 C 15.5625 -35.648438 19.328125 -36.484375 23.890625 -36.484375 C 29.003906 -36.484375 34.535156 -35.457031 40.484375 -33.40625 L 40.484375 -0.609375 C 40.484375 4.609375 38.804688 8.6875 35.453125 11.625 C 32.097656 14.570312 27.550781 16.046875 21.8125 16.046875 Z M 22.5 -9.75 L 29.109375 -9.75 L 29.109375 -25.890625 C 26.910156 -26.503906 25.015625 -26.8125 23.421875 -26.8125 C 20.503906 -26.8125 18.328125 -25.960938 16.890625 -24.265625 C 15.460938 -22.578125 14.75 -20.453125 14.75 -17.890625 C 14.75 -15.535156 15.476562 -13.585938 16.9375 -12.046875 C 18.394531 -10.515625 20.25 -9.75 22.5 -9.75 Z M 22.5 -9.75 "/></g></g></g><g fill="#000000" fill-opacity="1"><g transform="translate(159.840281, 65.01601)"><g><path d="M 11.984375 0 C 6.660156 0 4 -3.328125 4 -9.984375 L 4 -54.609375 L 15.203125 -57.6875 L 15.203125 -10.0625 L 22.578125 -10.0625 L 22.578125 0 Z M 11.984375 0 "/></g></g></g><g fill="#000000" fill-opacity="1"><g transform="translate(181.656042, 65.01601)"><g><path d="M 22.890625 -40.484375 C 21.398438 -40.484375 20.128906 -41.003906 19.078125 -42.046875 C 18.035156 -43.097656 17.515625 -44.367188 17.515625 -45.859375 C 17.515625 -47.296875 18.035156 -48.523438 19.078125 -49.546875 C 20.128906 -50.566406 21.398438 -51.078125 22.890625 -51.078125 C 24.328125 -51.078125 25.554688 -50.566406 26.578125 -49.546875 C 27.597656 -48.523438 28.109375 -47.296875 28.109375 -45.859375 C 28.109375 -44.367188 27.597656 -43.097656 26.578125 -42.046875 C 25.554688 -41.003906 24.328125 -40.484375 22.890625 -40.484375 Z M 36.484375 -40.484375 C 35.003906 -40.484375 33.738281 -41.003906 32.6875 -42.046875 C 31.632812 -43.097656 31.109375 -44.367188 31.109375 -45.859375 C 31.109375 -47.296875 31.632812 -48.523438 32.6875 -49.546875 C 33.738281 -50.566406 35.003906 -51.078125 36.484375 -51.078125 C 37.921875 -51.078125 39.148438 -50.566406 40.171875 -49.546875 C 41.191406 -48.523438 41.703125 -47.296875 41.703125 -45.859375 C 41.703125 -44.367188 41.191406 -43.097656 40.171875 -42.046875 C 39.148438 -41.003906 37.921875 -40.484375 36.484375 -40.484375 Z M 44.390625 -10.0625 L 55.15625 -10.0625 L 55.15625 0 L -0.765625 0 L -0.765625 -10.0625 L 11.296875 -10.0625 C 10.265625 -10.78125 9.425781 -11.828125 8.78125 -13.203125 C 8.144531 -14.585938 7.828125 -16.175781 7.828125 -17.96875 C 7.828125 -21.457031 8.546875 -24.59375 9.984375 -27.375 C 11.421875 -30.164062 13.625 -32.378906 16.59375 -34.015625 C 19.5625 -35.660156 23.328125 -36.484375 27.890625 -36.484375 C 33.109375 -36.484375 38.609375 -35.457031 44.390625 -33.40625 Z M 33.03125 -9.75 L 33.03125 -25.890625 C 30.875 -26.503906 29.003906 -26.8125 27.421875 -26.8125 C 24.503906 -26.8125 22.328125 -25.960938 20.890625 -24.265625 C 19.460938 -22.578125 18.75 -20.453125 18.75 -17.890625 C 18.75 -15.640625 19.453125 -13.71875 20.859375 -12.125 C 22.265625 -10.539062 24.144531 -9.75 26.5 -9.75 Z M 33.03125 -9.75 "/></g></g></g><g fill="#000000" fill-opacity="1"><g transform="translate(236.041859, 65.01601)"><g><path d="M 52.078125 -10.0625 L 52.078125 0 C 49.972656 0 48.023438 -0.238281 46.234375 -0.71875 C 44.441406 -1.207031 42.832031 -2.019531 41.40625 -3.15625 C 39.96875 -0.695312 37.941406 1.207031 35.328125 2.5625 C 32.722656 3.925781 29.523438 4.609375 25.734375 4.609375 C 22.148438 4.609375 19.023438 3.90625 16.359375 2.5 C 13.691406 1.09375 11.617188 -0.914062 10.140625 -3.53125 C 8.753906 -2.25 7.164062 -1.335938 5.375 -0.796875 C 3.582031 -0.265625 1.5625 0 -0.6875 0 L -0.6875 -10.0625 C 1.457031 -10.0625 3.3125 -10.609375 4.875 -11.703125 C 6.4375 -12.804688 7.472656 -14.304688 7.984375 -16.203125 C 8.242188 -21.222656 9.945312 -25.226562 13.09375 -28.21875 C 16.25 -31.21875 20.460938 -32.71875 25.734375 -32.71875 C 31.515625 -32.71875 35.976562 -31.144531 39.125 -28 C 42.28125 -24.851562 43.910156 -20.460938 44.015625 -14.828125 C 44.679688 -13.335938 45.726562 -12.171875 47.15625 -11.328125 C 48.59375 -10.484375 50.234375 -10.0625 52.078125 -10.0625 Z M 25.734375 -5.53125 C 28.441406 -5.53125 30.394531 -6.269531 31.59375 -7.75 C 32.800781 -9.238281 33.40625 -11.367188 33.40625 -14.140625 C 33.40625 -16.847656 32.789062 -18.929688 31.5625 -20.390625 C 30.332031 -21.847656 28.390625 -22.578125 25.734375 -22.578125 C 23.273438 -22.578125 21.390625 -21.847656 20.078125 -20.390625 C 18.773438 -18.929688 18.125 -16.847656 18.125 -14.140625 C 18.125 -11.421875 18.773438 -9.304688 20.078125 -7.796875 C 21.390625 -6.285156 23.273438 -5.53125 25.734375 -5.53125 Z M 25.734375 -5.53125 "/></g></g></g><g fill="#000000" fill-opacity="1"><g transform="translate(287.355, 65.01601)"><g><path d="M 17.75 -10.0625 L 25.65625 -10.0625 L 25.65625 0 L -0.765625 0 L -0.765625 -10.0625 L 6.609375 -10.0625 L 6.609375 -54.609375 L 17.75 -57.6875 Z M 17.75 -10.0625 "/></g></g></g><g fill="#000000" fill-opacity="1"><g transform="translate(312.243417, 65.01601)"><g><path d="M -0.765625 0 L -0.765625 -10.0625 L 6.609375 -10.0625 L 6.609375 -54.609375 L 17.75 -57.6875 L 17.75 -9.984375 C 17.75 -3.328125 15.035156 0 9.609375 0 Z M -0.765625 0 "/></g></g></g><g fill="#000000" fill-opacity="1"><g transform="translate(333.828725, 65.01601)"><g/></g></g><g fill="#000000" fill-opacity="1"><g transform="translate(348.807878, 65.01601)"><g><path d="M 17.046875 -40.484375 C 15.566406 -40.484375 14.300781 -41.003906 13.25 -42.046875 C 12.195312 -43.097656 11.671875 -44.367188 11.671875 -45.859375 C 11.671875 -47.296875 12.195312 -48.523438 13.25 -49.546875 C 14.300781 -50.566406 15.566406 -51.078125 17.046875 -51.078125 C 18.484375 -51.078125 19.710938 -50.566406 20.734375 -49.546875 C 21.765625 -48.523438 22.28125 -47.296875 22.28125 -45.859375 C 22.28125 -44.367188 21.765625 -43.097656 20.734375 -42.046875 C 19.710938 -41.003906 18.484375 -40.484375 17.046875 -40.484375 Z M 30.640625 -40.484375 C 29.160156 -40.484375 27.894531 -41.003906 26.84375 -42.046875 C 25.789062 -43.097656 25.265625 -44.367188 25.265625 -45.859375 C 25.265625 -47.296875 25.789062 -48.523438 26.84375 -49.546875 C 27.894531 -50.566406 29.160156 -51.078125 30.640625 -51.078125 C 32.078125 -51.078125 33.304688 -50.566406 34.328125 -49.546875 C 35.359375 -48.523438 35.875 -47.296875 35.875 -45.859375 C 35.875 -44.367188 35.359375 -43.097656 34.328125 -42.046875 C 33.304688 -41.003906 32.078125 -40.484375 30.640625 -40.484375 Z M 20.125 0 C 16.644531 0 13.6875 -0.753906 11.25 -2.265625 C 8.820312 -3.773438 6.976562 -5.796875 5.71875 -8.328125 C 4.46875 -10.867188 3.84375 -13.703125 3.84375 -16.828125 C 3.84375 -20.660156 4.554688 -24.0625 5.984375 -27.03125 C 7.421875 -30.007812 9.625 -32.328125 12.59375 -33.984375 C 15.5625 -35.648438 19.328125 -36.484375 23.890625 -36.484375 C 29.054688 -36.484375 34.5625 -35.457031 40.40625 -33.40625 L 40.40625 -10.0625 C 40.40625 -3.351562 37.691406 0 32.265625 0 Z M 22.5 -9.75 L 29.109375 -9.75 L 29.109375 -25.890625 C 26.910156 -26.503906 25.015625 -26.8125 23.421875 -26.8125 C 20.503906 -26.8125 18.328125 -25.960938 16.890625 -24.265625 C 15.460938 -22.578125 14.75 -20.453125 14.75 -17.890625 C 14.75 -15.535156 15.476562 -13.585938 16.9375 -12.046875 C 18.394531 -10.515625 20.25 -9.75 22.5 -9.75 Z M 22.5 -9.75 "/></g></g></g><g fill="#000000" fill-opacity="1"><g transform="translate(390.134789, 65.01601)"><g><path d="M 37.71875 -10.0625 L 37.71875 0 L 31.71875 0 C 31.15625 5.269531 29.300781 9.257812 26.15625 11.96875 C 23.007812 14.6875 18.59375 16.046875 12.90625 16.046875 C 8.394531 16.046875 4.09375 15.023438 0 12.984375 L 2.234375 4.140625 C 5.253906 5.222656 8.066406 5.765625 10.671875 5.765625 C 13.742188 5.765625 16.203125 4.851562 18.046875 3.03125 C 19.890625 1.21875 20.8125 -1.070312 20.8125 -3.84375 L 20.8125 -33.5625 L 31.953125 -36.640625 L 31.953125 -10.0625 Z M 37.71875 -10.0625 "/></g></g></g><g fill="#000000" fill-opacity="1"><g transform="translate(427.083312, 65.01601)"><g><path d="M 17.890625 -33.484375 L 29.03125 -36.5625 L 29.03125 -9.828125 C 29.03125 -3.273438 26.367188 0 21.046875 0 L -0.765625 0 L -0.765625 -10.0625 L 17.890625 -10.0625 Z M 8.453125 3.84375 C 9.878906 3.84375 11.101562 4.351562 12.125 5.375 C 13.15625 6.394531 13.671875 7.625 13.671875 9.0625 C 13.671875 10.550781 13.15625 11.816406 12.125 12.859375 C 11.101562 13.910156 9.878906 14.4375 8.453125 14.4375 C 6.960938 14.4375 5.691406 13.910156 4.640625 12.859375 C 3.597656 11.816406 3.078125 10.550781 3.078125 9.0625 C 3.078125 7.625 3.597656 6.394531 4.640625 5.375 C 5.691406 4.351562 6.960938 3.84375 8.453125 3.84375 Z M 22.046875 3.84375 C 23.484375 3.84375 24.710938 4.351562 25.734375 5.375 C 26.753906 6.394531 27.265625 7.625 27.265625 9.0625 C 27.265625 10.550781 26.753906 11.816406 25.734375 12.859375 C 24.710938 13.910156 23.484375 14.4375 22.046875 14.4375 C 20.554688 14.4375 19.285156 13.910156 18.234375 12.859375 C 17.191406 11.816406 16.671875 10.550781 16.671875 9.0625 C 16.671875 7.625 17.191406 6.394531 18.234375 5.375 C 19.285156 4.351562 20.554688 3.84375 22.046875 3.84375 Z M 22.046875 3.84375 "/></g></g></g><g fill="#000000" fill-opacity="1"><g transform="translate(457.195064, 65.01601)"><g><path d="M 26.046875 -40.484375 C 24.554688 -40.484375 23.285156 -41.003906 22.234375 -42.046875 C 21.179688 -43.097656 20.65625 -44.367188 20.65625 -45.859375 C 20.65625 -47.296875 21.179688 -48.523438 22.234375 -49.546875 C 23.285156 -50.566406 24.554688 -51.078125 26.046875 -51.078125 C 27.472656 -51.078125 28.695312 -50.566406 29.71875 -49.546875 C 30.75 -48.523438 31.265625 -47.296875 31.265625 -45.859375 C 31.265625 -44.367188 30.75 -43.097656 29.71875 -42.046875 C 28.695312 -41.003906 27.472656 -40.484375 26.046875 -40.484375 Z M 37.640625 -10.0625 L 37.640625 0 L 31.640625 0 C 31.078125 5.269531 29.222656 9.257812 26.078125 11.96875 C 22.929688 14.6875 18.515625 16.046875 12.828125 16.046875 C 8.316406 16.046875 4.015625 15.023438 -0.078125 12.984375 L 2.15625 4.140625 C 5.175781 5.222656 7.988281 5.765625 10.59375 5.765625 C 13.664062 5.765625 16.125 4.851562 17.96875 3.03125 C 19.8125 1.21875 20.734375 -1.070312 20.734375 -3.84375 L 20.734375 -33.5625 L 31.875 -36.640625 L 31.875 -10.0625 Z M 37.640625 -10.0625 "/></g></g></g><g fill="#000000" fill-opacity="1"><g transform="translate(494.143628, 65.01601)"><g><path d="M 46.390625 -10.0625 L 46.390625 0 L -0.765625 0 L -0.765625 -10.0625 L 30.640625 -10.0625 C 27.472656 -20.613281 23.328125 -25.890625 18.203125 -25.890625 C 15.847656 -25.890625 13.238281 -24.835938 10.375 -22.734375 L 4.296875 -30.71875 C 9.316406 -34.664062 14.109375 -36.640625 18.671875 -36.640625 C 23.535156 -36.640625 27.847656 -34.382812 31.609375 -29.875 C 35.367188 -25.375 38.53125 -18.769531 41.09375 -10.0625 Z M 18.671875 3.84375 C 20.097656 3.84375 21.320312 4.351562 22.34375 5.375 C 23.375 6.394531 23.890625 7.648438 23.890625 9.140625 C 23.890625 10.628906 23.375 11.882812 22.34375 12.90625 C 21.320312 13.925781 20.097656 14.4375 18.671875 14.4375 C 17.179688 14.4375 15.910156 13.925781 14.859375 12.90625 C 13.804688 11.882812 13.28125 10.628906 13.28125 9.140625 C 13.28125 7.648438 13.804688 6.394531 14.859375 5.375 C 15.910156 4.351562 17.179688 3.84375 18.671875 3.84375 Z M 18.671875 3.84375 "/></g></g></g><g fill="#000000" fill-opacity="1"><g transform="translate(539.772386, 65.01601)"><g><path d="M -0.765625 0 L -0.765625 -10.0625 L 6.609375 -10.0625 L 6.609375 -54.609375 L 17.75 -57.6875 L 17.75 -9.984375 C 17.75 -3.328125 15.035156 0 9.609375 0 Z M -0.765625 0 "/></g></g></g><g fill="#000000" fill-opacity="1"><g transform="translate(561.357674, 65.01601)"><g><path d="M 3.84375 0 L 3.84375 -54.609375 L 15.59375 -57.6875 L 15.59375 0 Z M 3.84375 0 "/></g></g></g><g fill="#000000" fill-opacity="1"><g transform="translate(580.792161, 65.01601)"><g/></g></g><g clip-path="url(#69213052a5)"><g fill="#000000" fill-opacity="1"><g transform="translate(595.771313, 65.01601)"><g><path d="M 28.421875 16.046875 C 25.398438 16.046875 22.425781 15.5625 19.5 14.59375 C 16.582031 13.625 13.945312 12.203125 11.59375 10.328125 C 9.238281 8.460938 7.359375 6.171875 5.953125 3.453125 C 4.546875 0.742188 3.84375 -2.351562 3.84375 -5.84375 L 3.84375 -16.046875 L 13.90625 -16.046875 L 13.90625 -5.84375 C 13.90625 -3.226562 14.554688 -1.039062 15.859375 0.71875 C 17.171875 2.488281 18.925781 3.820312 21.125 4.71875 C 23.320312 5.613281 25.753906 6.0625 28.421875 6.0625 C 31.597656 6.0625 34.234375 5.523438 36.328125 4.453125 C 38.429688 3.378906 39.914062 1.894531 40.78125 0 L 35.640625 0 L 35.640625 -10.0625 L 59.0625 -10.0625 L 59.0625 0 L 52.765625 0 C 52.046875 3.226562 50.585938 6.046875 48.390625 8.453125 C 46.191406 10.859375 43.398438 12.722656 40.015625 14.046875 C 36.640625 15.378906 32.773438 16.046875 28.421875 16.046875 Z M 21.65625 30.5 C 20.175781 30.5 18.910156 29.984375 17.859375 28.953125 C 16.804688 27.929688 16.28125 26.675781 16.28125 25.1875 C 16.28125 23.707031 16.804688 22.453125 17.859375 21.421875 C 18.910156 20.398438 20.175781 19.890625 21.65625 19.890625 C 23.09375 19.890625 24.320312 20.398438 25.34375 21.421875 C 26.375 22.453125 26.890625 23.707031 26.890625 25.1875 C 26.890625 26.675781 26.375 27.929688 25.34375 28.953125 C 24.320312 29.984375 23.09375 30.5 21.65625 30.5 Z M 35.25 30.5 C 33.769531 30.5 32.503906 29.984375 31.453125 28.953125 C 30.398438 27.929688 29.875 26.675781 29.875 25.1875 C 29.875 23.707031 30.398438 22.453125 31.453125 21.421875 C 32.503906 20.398438 33.769531 19.890625 35.25 19.890625 C 36.6875 19.890625 37.914062 20.398438 38.9375 21.421875 C 39.96875 22.453125 40.484375 23.707031 40.484375 25.1875 C 40.484375 26.675781 39.96875 27.929688 38.9375 28.953125 C 37.914062 29.984375 36.6875 30.5 35.25 30.5 Z M 35.25 30.5 "/></g></g></g></g><g fill="#000000" fill-opacity="1"><g transform="translate(654.074692, 65.01601)"><g><path d="M 12.359375 -40.484375 C 10.878906 -40.484375 9.613281 -41.003906 8.5625 -42.046875 C 7.507812 -43.097656 6.984375 -44.367188 6.984375 -45.859375 C 6.984375 -47.296875 7.507812 -48.523438 8.5625 -49.546875 C 9.613281 -50.566406 10.878906 -51.078125 12.359375 -51.078125 C 13.796875 -51.078125 15.023438 -50.566406 16.046875 -49.546875 C 17.078125 -48.523438 17.59375 -47.296875 17.59375 -45.859375 C 17.59375 -44.367188 17.078125 -43.097656 16.046875 -42.046875 C 15.023438 -41.003906 13.796875 -40.484375 12.359375 -40.484375 Z M -0.765625 0 L -0.765625 -10.0625 L 7.375 -10.0625 L 7.375 -33.484375 L 18.59375 -36.5625 L 18.59375 -9.828125 C 18.59375 -3.273438 15.925781 0 10.59375 0 Z M -0.765625 0 "/></g></g></g><g fill="#000000" fill-opacity="1"><g transform="translate(676.658658, 65.01601)"><g><path d="M 3.84375 0 L 3.84375 -54.609375 L 15.59375 -57.6875 L 15.59375 0 Z M 3.84375 0 "/></g></g></g><g fill="#000000" fill-opacity="1"><g transform="translate(696.093145, 65.01601)"><g><path d="M 46.390625 -10.0625 L 46.390625 0 L 40.484375 0 C 40.328125 5.019531 38.582031 8.945312 35.25 11.78125 C 31.925781 14.625 27.445312 16.046875 21.8125 16.046875 C 17.101562 16.046875 12.367188 15.203125 7.609375 13.515625 L 9.296875 6.21875 C 13.140625 7.289062 16.671875 7.828125 19.890625 7.828125 C 22.859375 7.828125 25.125 7.300781 26.6875 6.25 C 28.25 5.207031 29.054688 3.125 29.109375 0 L 20.125 0 C 16.644531 0 13.6875 -0.753906 11.25 -2.265625 C 8.820312 -3.773438 6.976562 -5.796875 5.71875 -8.328125 C 4.46875 -10.867188 3.84375 -13.703125 3.84375 -16.828125 C 3.84375 -20.660156 4.554688 -24.0625 5.984375 -27.03125 C 7.421875 -30.007812 9.625 -32.328125 12.59375 -33.984375 C 15.5625 -35.648438 19.328125 -36.484375 23.890625 -36.484375 C 29.003906 -36.484375 34.535156 -35.457031 40.484375 -33.40625 L 40.484375 -10.0625 Z M 29.109375 -9.75 L 29.109375 -25.890625 C 26.910156 -26.503906 25.015625 -26.8125 23.421875 -26.8125 C 20.503906 -26.8125 18.328125 -25.960938 16.890625 -24.265625 C 15.460938 -22.578125 14.75 -20.453125 14.75 -17.890625 C 14.75 -15.535156 15.476562 -13.585938 16.9375 -12.046875 C 18.394531 -10.515625 20.25 -9.75 22.5 -9.75 Z M 29.109375 -9.75 "/></g></g></g><g fill="#000000" fill-opacity="1"><g transform="translate(741.721862, 65.01601)"><g><path d="M -0.765625 0 L -0.765625 -10.0625 L 7.375 -10.0625 L 7.375 -33.484375 L 18.59375 -36.5625 L 18.59375 -9.828125 C 18.59375 -3.273438 15.925781 0 10.59375 0 Z M 12.0625 14.4375 C 10.570312 14.4375 9.300781 13.925781 8.25 12.90625 C 7.207031 11.882812 6.6875 10.628906 6.6875 9.140625 C 6.6875 7.648438 7.207031 6.394531 8.25 5.375 C 9.300781 4.351562 10.570312 3.84375 12.0625 3.84375 C 13.488281 3.84375 14.710938 4.351562 15.734375 5.375 C 16.765625 6.394531 17.28125 7.648438 17.28125 9.140625 C 17.28125 10.628906 16.765625 11.882812 15.734375 12.90625 C 14.710938 13.925781 13.488281 14.4375 12.0625 14.4375 Z M 12.0625 14.4375 "/></g></g></g><g fill="#000000" fill-opacity="1"><g transform="translate(764.305828, 65.01601)"><g/></g></g><g fill="#000000" fill-opacity="1"><g transform="translate(779.284981, 65.01601)"><g><path d="M 17.046875 -40.484375 C 15.566406 -40.484375 14.300781 -41.003906 13.25 -42.046875 C 12.195312 -43.097656 11.671875 -44.367188 11.671875 -45.859375 C 11.671875 -47.296875 12.195312 -48.523438 13.25 -49.546875 C 14.300781 -50.566406 15.566406 -51.078125 17.046875 -51.078125 C 18.484375 -51.078125 19.710938 -50.566406 20.734375 -49.546875 C 21.765625 -48.523438 22.28125 -47.296875 22.28125 -45.859375 C 22.28125 -44.367188 21.765625 -43.097656 20.734375 -42.046875 C 19.710938 -41.003906 18.484375 -40.484375 17.046875 -40.484375 Z M 30.640625 -40.484375 C 29.160156 -40.484375 27.894531 -41.003906 26.84375 -42.046875 C 25.789062 -43.097656 25.265625 -44.367188 25.265625 -45.859375 C 25.265625 -47.296875 25.789062 -48.523438 26.84375 -49.546875 C 27.894531 -50.566406 29.160156 -51.078125 30.640625 -51.078125 C 32.078125 -51.078125 33.304688 -50.566406 34.328125 -49.546875 C 35.359375 -48.523438 35.875 -47.296875 35.875 -45.859375 C 35.875 -44.367188 35.359375 -43.097656 34.328125 -42.046875 C 33.304688 -41.003906 32.078125 -40.484375 30.640625 -40.484375 Z M 20.125 0 C 16.644531 0 13.6875 -0.753906 11.25 -2.265625 C 8.820312 -3.773438 6.976562 -5.796875 5.71875 -8.328125 C 4.46875 -10.867188 3.84375 -13.703125 3.84375 -16.828125 C 3.84375 -20.660156 4.554688 -24.0625 5.984375 -27.03125 C 7.421875 -30.007812 9.625 -32.328125 12.59375 -33.984375 C 15.5625 -35.648438 19.328125 -36.484375 23.890625 -36.484375 C 29.054688 -36.484375 34.5625 -35.457031 40.40625 -33.40625 L 40.40625 -10.0625 L 47.3125 -10.0625 L 47.3125 0 Z M 22.5 -9.75 L 29.109375 -9.75 L 29.109375 -25.890625 C 26.910156 -26.503906 25.015625 -26.8125 23.421875 -26.8125 C 20.503906 -26.8125 18.328125 -25.960938 16.890625 -24.265625 C 15.460938 -22.578125 14.75 -20.453125 14.75 -17.890625 C 14.75 -15.535156 15.476562 -13.585938 16.9375 -12.046875 C 18.394531 -10.515625 20.25 -9.75 22.5 -9.75 Z M 22.5 -9.75 "/></g></g></g><g fill="#000000" fill-opacity="1"><g transform="translate(825.83551, 65.01601)"><g><path d="M -0.765625 0 L -0.765625 -10.0625 L 25.421875 -9.90625 L 25.421875 -15.90625 C 25.316406 -19.226562 24.613281 -21.863281 23.3125 -23.8125 C 22.007812 -25.757812 19.960938 -27.140625 17.171875 -27.953125 C 14.378906 -28.773438 10.648438 -29.132812 5.984375 -29.03125 L 5.984375 -39.09375 L 32.34375 -57.765625 L 32.34375 -46.859375 L 19.359375 -37.25 C 22.941406 -37.101562 25.910156 -36.03125 28.265625 -34.03125 C 30.617188 -32.03125 32.382812 -29.46875 33.5625 -26.34375 C 34.738281 -23.21875 35.351562 -19.835938 35.40625 -16.203125 L 35.40625 -9.828125 C 35.40625 -3.273438 32.691406 0 27.265625 0 Z M -0.765625 0 "/></g></g></g><g fill="#000000" fill-opacity="1"><g transform="translate(862.169356, 65.01601)"><g><path d="M 37.71875 -10.0625 L 37.71875 0 L 31.71875 0 C 31.15625 5.269531 29.300781 9.257812 26.15625 11.96875 C 23.007812 14.6875 18.59375 16.046875 12.90625 16.046875 C 8.394531 16.046875 4.09375 15.023438 0 12.984375 L 2.234375 4.140625 C 5.253906 5.222656 8.066406 5.765625 10.671875 5.765625 C 13.742188 5.765625 16.203125 4.851562 18.046875 3.03125 C 19.890625 1.21875 20.8125 -1.070312 20.8125 -3.84375 L 20.8125 -33.5625 L 31.953125 -36.640625 L 31.953125 -10.0625 Z M 37.71875 -10.0625 "/></g></g></g><g fill="#000000" fill-opacity="1"><g transform="translate(899.117879, 65.01601)"><g><path d="M 34.875 -52.921875 C 33.4375 -52.921875 32.191406 -53.445312 31.140625 -54.5 C 30.097656 -55.550781 29.578125 -56.816406 29.578125 -58.296875 C 29.578125 -59.734375 30.097656 -60.960938 31.140625 -61.984375 C 32.191406 -63.015625 33.4375 -63.53125 34.875 -63.53125 C 36.351562 -63.53125 37.601562 -63.015625 38.625 -61.984375 C 39.65625 -60.960938 40.171875 -59.734375 40.171875 -58.296875 C 40.171875 -56.816406 39.65625 -55.550781 38.625 -54.5 C 37.601562 -53.445312 36.351562 -52.921875 34.875 -52.921875 Z M 28.109375 -40.484375 C 26.628906 -40.484375 25.363281 -41.003906 24.3125 -42.046875 C 23.257812 -43.097656 22.734375 -44.367188 22.734375 -45.859375 C 22.734375 -47.296875 23.257812 -48.523438 24.3125 -49.546875 C 25.363281 -50.566406 26.628906 -51.078125 28.109375 -51.078125 C 29.546875 -51.078125 30.773438 -50.566406 31.796875 -49.546875 C 32.828125 -48.523438 33.34375 -47.296875 33.34375 -45.859375 C 33.34375 -44.367188 32.828125 -43.097656 31.796875 -42.046875 C 30.773438 -41.003906 29.546875 -40.484375 28.109375 -40.484375 Z M 41.703125 -40.484375 C 40.222656 -40.484375 38.957031 -41.003906 37.90625 -42.046875 C 36.851562 -43.097656 36.328125 -44.367188 36.328125 -45.859375 C 36.328125 -47.296875 36.851562 -48.523438 37.90625 -49.546875 C 38.957031 -50.566406 40.222656 -51.078125 41.703125 -51.078125 C 43.140625 -51.078125 44.367188 -50.566406 45.390625 -49.546875 C 46.421875 -48.523438 46.9375 -47.296875 46.9375 -45.859375 C 46.9375 -44.367188 46.421875 -43.097656 45.390625 -42.046875 C 44.367188 -41.003906 43.140625 -40.484375 41.703125 -40.484375 Z M -0.765625 0 L -0.765625 -10.0625 L 8.609375 -10.0625 L 8.609375 -33.796875 L 19.8125 -36.875 L 19.8125 -10.0625 L 29.34375 -10.0625 L 29.34375 -24.046875 L 40.484375 -27.109375 L 40.484375 -10.0625 L 49.703125 -10.0625 L 49.703125 -33.796875 L 60.828125 -36.875 L 60.828125 -9.984375 C 60.828125 -3.328125 58.113281 0 52.6875 0 Z M -0.765625 0 "/></g></g></g></g></g><g fill="#000000" fill-opacity="1"><g transform="translate(322.655021, 211.537646)"><g><path d="M 2.984375 0 L 2.984375 -44.46875 L 20.515625 -44.46875 C 24.878906 -44.46875 28.234375 -43.476562 30.578125 -41.5 C 32.929688 -39.53125 34.128906 -36.789062 34.171875 -33.28125 C 34.171875 -30.695312 33.648438 -28.566406 32.609375 -26.890625 C 31.578125 -25.222656 30.296875 -24.03125 28.765625 -23.3125 C 30.628906 -22.632812 32.25 -21.40625 33.625 -19.625 C 35.007812 -17.84375 35.703125 -15.429688 35.703125 -12.390625 C 35.703125 -9.421875 34.957031 -7.035156 33.46875 -5.234375 C 31.988281 -3.441406 30.039062 -2.117188 27.625 -1.265625 C 25.21875 -0.421875 22.59375 0 19.75 0 Z M 12.1875 -25.84375 L 20.390625 -25.84375 C 22.035156 -26.019531 23.28125 -26.65625 24.125 -27.75 C 24.976562 -28.851562 25.382812 -30.191406 25.34375 -31.765625 C 25.257812 -35.566406 23.207031 -37.46875 19.1875 -37.46875 L 12.1875 -37.46875 Z M 12.1875 -7.109375 L 19.125 -7.109375 C 20.394531 -7.109375 21.585938 -7.296875 22.703125 -7.671875 C 23.828125 -8.054688 24.75 -8.691406 25.46875 -9.578125 C 26.1875 -10.472656 26.546875 -11.707031 26.546875 -13.28125 C 26.546875 -15.519531 25.972656 -17.0625 24.828125 -17.90625 C 23.691406 -18.757812 22.316406 -19.25 20.703125 -19.375 L 12.1875 -19.375 Z M 12.1875 -7.109375 "/></g></g></g><g fill="#000000" fill-opacity="1"><g transform="translate(361.588879, 211.537646)"><g><path d="M -0.125 0 L 12.890625 -44.46875 L 24.890625 -44.46875 L 38.625 0 L 29.15625 0 L 26.234375 -9.71875 L 11.375 -9.71875 L 8.390625 0 Z M 13.21875 -16.828125 L 24.390625 -16.828125 L 18.921875 -36.078125 L 18.609375 -36.078125 Z M 13.21875 -16.828125 "/></g></g></g><g fill="#000000" fill-opacity="1"><g transform="translate(400.776791, 211.537646)"><g><path d="M 8 0 L 0.3125 -44.46875 L 9.078125 -44.46875 L 14.359375 -16 L 14.546875 -16 L 22.609375 -43.828125 L 28.90625 -43.828125 L 36.96875 -16 L 37.15625 -16 L 42.421875 -44.46875 L 51.1875 -44.46875 L 43.515625 0 L 34.109375 0 L 25.984375 -27.0625 L 25.71875 -27.0625 L 17.40625 0 Z M 8 0 "/></g></g></g><g fill="#000000" fill-opacity="1"><g transform="translate(453.175508, 211.537646)"><g><path d="M -0.125 0 L 12.890625 -44.46875 L 24.890625 -44.46875 L 38.625 0 L 29.15625 0 L 26.234375 -9.71875 L 11.375 -9.71875 L 8.390625 0 Z M 13.21875 -16.828125 L 24.390625 -16.828125 L 18.921875 -36.078125 L 18.609375 -36.078125 Z M 13.21875 -16.828125 "/></g></g></g><g fill="#000000" fill-opacity="1"><g transform="translate(492.363419, 211.537646)"><g><path d="M 2.546875 0 L 2.546875 -44.46875 L 12.265625 -44.46875 L 28.640625 -14.859375 L 28.96875 -14.859375 L 28.96875 -44.46875 L 37.734375 -44.46875 L 37.734375 0 L 28.453125 0 L 12.0625 -27.953125 L 11.8125 -27.953125 L 11.8125 0 Z M 2.546875 0 "/></g></g></g><g fill="#000000" fill-opacity="1"><g transform="translate(533.266193, 211.537646)"><g><path d="M 3.234375 0 L 3.234375 -44.46875 L 12.515625 -44.46875 L 12.515625 0 Z M 3.234375 0 "/></g></g></g><g fill="#000000" fill-opacity="1"><g transform="translate(549.652762, 211.537646)"><g/></g></g><g fill="#000000" fill-opacity="1"><g transform="translate(562.673116, 211.537646)"><g><path d="M -0.125 0 L 12.890625 -44.46875 L 24.890625 -44.46875 L 38.625 0 L 29.15625 0 L 26.234375 -9.71875 L 11.375 -9.71875 L 8.390625 0 Z M 13.21875 -16.828125 L 24.390625 -16.828125 L 18.921875 -36.078125 L 18.609375 -36.078125 Z M 13.21875 -16.828125 "/></g></g></g><g fill="#000000" fill-opacity="1"><g transform="translate(601.861017, 211.537646)"><g><path d="M 2.984375 0 L 2.984375 -44.46875 L 12.1875 -44.46875 L 12.1875 -8.328125 L 28.328125 -8.328125 L 28.328125 0 Z M 2.984375 0 "/></g></g></g><g fill="#000000" fill-opacity="1"><g transform="translate(631.775977, 211.537646)"><g><path d="M 2.21875 -16.203125 L 2.21875 -24.015625 L 20.515625 -24.015625 L 20.515625 -16.203125 Z M 2.21875 -16.203125 "/></g></g></g><g fill="#000000" fill-opacity="1"><g transform="translate(655.149017, 211.537646)"><g><path d="M 9.71875 0.765625 C 8.019531 0.765625 6.28125 0.582031 4.5 0.21875 C 2.726562 -0.132812 1.035156 -0.691406 -0.578125 -1.453125 L 1.078125 -8.1875 C 2.097656 -7.8125 3.082031 -7.515625 4.03125 -7.296875 C 4.988281 -7.085938 6.101562 -6.984375 7.375 -6.984375 C 9.613281 -6.984375 11.328125 -7.796875 12.515625 -9.421875 C 13.703125 -11.054688 14.296875 -13.144531 14.296875 -15.6875 L 14.296875 -44.46875 L 23.5 -44.46875 L 23.5 -13.015625 C 23.5 -9.796875 22.863281 -7.171875 21.59375 -5.140625 C 20.320312 -3.109375 18.648438 -1.613281 16.578125 -0.65625 C 14.503906 0.289062 12.21875 0.765625 9.71875 0.765625 Z M 9.71875 0.765625 "/></g></g></g><g fill="#000000" fill-opacity="1"><g transform="translate(682.904485, 211.537646)"><g><path d="M -0.125 0 L 12.890625 -44.46875 L 24.890625 -44.46875 L 38.625 0 L 29.15625 0 L 26.234375 -9.71875 L 11.375 -9.71875 L 8.390625 0 Z M 13.21875 -16.828125 L 24.390625 -16.828125 L 18.921875 -36.078125 L 18.609375 -36.078125 Z M 13.21875 -16.828125 "/></g></g></g><g fill="#000000" fill-opacity="1"><g transform="translate(722.092385, 211.537646)"><g><path d="M 2.21875 0 L 2.21875 -8.515625 L 23.5 -35.765625 L 23.5 -36.65625 L 2.484375 -36.65625 L 2.484375 -44.46875 L 34.609375 -44.46875 L 34.609375 -35.890625 L 13.34375 -8.828125 L 13.34375 -7.8125 L 35 -7.8125 L 35 0 Z M 2.21875 0 "/></g></g></g><g fill="#000000" fill-opacity="1"><g transform="translate(759.946543, 211.537646)"><g><path d="M 2.984375 0 L 2.984375 -44.46875 L 31.4375 -44.46875 L 31.4375 -36.265625 L 12.1875 -36.265625 L 12.1875 -25.984375 L 24.265625 -25.984375 L 24.265625 -18.484375 L 12.1875 -18.484375 L 12.1875 -8.1875 L 31.828125 -8.1875 L 31.828125 0 Z M 2.984375 0 "/></g></g></g><g fill="#000000" fill-opacity="1"><g transform="translate(794.561506, 211.537646)"><g><path d="M 3.5 0 L 3.5 -44.46875 L 19.5 -44.46875 C 22.332031 -44.46875 24.867188 -43.925781 27.109375 -42.84375 C 29.359375 -41.757812 31.128906 -40.101562 32.421875 -37.875 C 33.710938 -35.65625 34.359375 -32.789062 34.359375 -29.28125 C 34.359375 -25.8125 33.691406 -22.972656 32.359375 -20.765625 C 31.023438 -18.566406 29.21875 -16.976562 26.9375 -16 L 36.078125 0 L 26.9375 0 L 18.921875 -14.15625 L 12.703125 -14.15625 L 12.703125 0 Z M 12.703125 -21.84375 L 18.859375 -21.84375 C 21.066406 -21.84375 22.796875 -22.46875 24.046875 -23.71875 C 25.296875 -24.96875 25.921875 -26.820312 25.921875 -29.28125 C 25.921875 -31.78125 25.296875 -33.65625 24.046875 -34.90625 C 22.796875 -36.15625 21.046875 -36.78125 18.796875 -36.78125 L 12.703125 -36.78125 Z M 12.703125 -21.84375 "/></g></g></g><g fill="#000000" fill-opacity="1"><g transform="translate(831.71698, 211.537646)"><g><path d="M -0.125 0 L 12.890625 -44.46875 L 24.890625 -44.46875 L 38.625 0 L 29.15625 0 L 26.234375 -9.71875 L 11.375 -9.71875 L 8.390625 0 Z M 13.21875 -16.828125 L 24.390625 -16.828125 L 18.921875 -36.078125 L 18.609375 -36.078125 Z M 13.21875 -16.828125 "/></g></g></g><g fill="#000000" fill-opacity="1"><g transform="translate(870.90488, 211.537646)"><g/></g></g><g fill="#000000" fill-opacity="1"><g transform="translate(883.925234, 211.537646)"><g><path d="M 21.15625 0.890625 C 17.71875 0.890625 14.546875 0.046875 11.640625 -1.640625 C 8.742188 -3.335938 6.414062 -5.878906 4.65625 -9.265625 C 2.90625 -12.660156 2.03125 -16.894531 2.03125 -21.96875 C 2.03125 -26.96875 2.894531 -31.203125 4.625 -34.671875 C 6.363281 -38.148438 8.679688 -40.796875 11.578125 -42.609375 C 14.484375 -44.429688 17.695312 -45.34375 21.21875 -45.34375 C 25.070312 -45.34375 28.609375 -44.773438 31.828125 -43.640625 L 31.828125 -35.5 C 30.640625 -35.96875 29.3125 -36.335938 27.84375 -36.609375 C 26.382812 -36.890625 24.722656 -37.03125 22.859375 -37.03125 C 19.390625 -36.988281 16.507812 -35.695312 14.21875 -33.15625 C 11.9375 -30.613281 10.796875 -26.882812 10.796875 -21.96875 C 10.796875 -17.226562 11.882812 -13.640625 14.0625 -11.203125 C 16.25 -8.773438 19.097656 -7.539062 22.609375 -7.5 C 26.128906 -7.5 29.203125 -8.023438 31.828125 -9.078125 L 31.828125 -0.765625 C 30.421875 -0.210938 28.785156 0.195312 26.921875 0.46875 C 25.066406 0.75 23.144531 0.890625 21.15625 0.890625 Z M 21.15625 0.890625 "/></g></g></g><g fill="#000000" fill-opacity="1"><g transform="translate(918.032069, 211.537646)"><g><path d="M 23.5625 0.765625 C 19.414062 0.765625 15.742188 -0.113281 12.546875 -1.875 C 9.347656 -3.632812 6.847656 -6.207031 5.046875 -9.59375 C 3.242188 -12.976562 2.34375 -17.128906 2.34375 -22.046875 C 2.34375 -26.867188 3.210938 -31.015625 4.953125 -34.484375 C 6.691406 -37.960938 9.144531 -40.628906 12.3125 -42.484375 C 15.488281 -44.347656 19.238281 -45.28125 23.5625 -45.28125 C 27.882812 -45.28125 31.628906 -44.347656 34.796875 -42.484375 C 37.972656 -40.628906 40.421875 -37.960938 42.140625 -34.484375 C 43.859375 -31.015625 44.71875 -26.867188 44.71875 -22.046875 C 44.71875 -17.128906 43.816406 -12.976562 42.015625 -9.59375 C 40.210938 -6.207031 37.722656 -3.632812 34.546875 -1.875 C 31.367188 -0.113281 27.707031 0.765625 23.5625 0.765625 Z M 23.5625 -7.625 C 27.457031 -7.625 30.492188 -8.90625 32.671875 -11.46875 C 34.859375 -14.03125 35.953125 -17.554688 35.953125 -22.046875 C 35.953125 -26.660156 34.859375 -30.300781 32.671875 -32.96875 C 30.492188 -35.632812 27.457031 -36.96875 23.5625 -36.96875 C 19.664062 -36.96875 16.613281 -35.632812 14.40625 -32.96875 C 12.207031 -30.300781 11.109375 -26.660156 11.109375 -22.046875 C 11.109375 -17.554688 12.207031 -14.03125 14.40625 -11.46875 C 16.613281 -8.90625 19.664062 -7.625 23.5625 -7.625 Z M 23.5625 -7.625 "/></g></g></g><g fill="#000000" fill-opacity="1"><g transform="translate(965.794316, 211.537646)"><g><path d="M 2.546875 0 L 2.546875 -44.46875 L 12.265625 -44.46875 L 28.640625 -14.859375 L 28.96875 -14.859375 L 28.96875 -44.46875 L 37.734375 -44.46875 L 37.734375 0 L 28.453125 0 L 12.0625 -27.953125 L 11.8125 -27.953125 L 11.8125 0 Z M 2.546875 0 "/></g></g></g><g fill="#000000" fill-opacity="1"><g transform="translate(1006.697068, 211.537646)"><g><path d="M 13.015625 0 L 13.015625 -36.578125 L 0.953125 -36.578125 L 0.953125 -44.46875 L 34.296875 -44.46875 L 34.296875 -36.578125 L 22.234375 -36.578125 L 22.234375 0 Z M 13.015625 0 "/></g></g></g><g fill="#000000" fill-opacity="1"><g transform="translate(1042.582286, 211.537646)"><g><path d="M 3.5 0 L 3.5 -44.46875 L 19.5 -44.46875 C 22.332031 -44.46875 24.867188 -43.925781 27.109375 -42.84375 C 29.359375 -41.757812 31.128906 -40.101562 32.421875 -37.875 C 33.710938 -35.65625 34.359375 -32.789062 34.359375 -29.28125 C 34.359375 -25.8125 33.691406 -22.972656 32.359375 -20.765625 C 31.023438 -18.566406 29.21875 -16.976562 26.9375 -16 L 36.078125 0 L 26.9375 0 L 18.921875 -14.15625 L 12.703125 -14.15625 L 12.703125 0 Z M 12.703125 -21.84375 L 18.859375 -21.84375 C 21.066406 -21.84375 22.796875 -22.46875 24.046875 -23.71875 C 25.296875 -24.96875 25.921875 -26.820312 25.921875 -29.28125 C 25.921875 -31.78125 25.296875 -33.65625 24.046875 -34.90625 C 22.796875 -36.15625 21.046875 -36.78125 18.796875 -36.78125 L 12.703125 -36.78125 Z M 12.703125 -21.84375 "/></g></g></g><g fill="#000000" fill-opacity="1"><g transform="translate(1079.73776, 211.537646)"><g><path d="M -0.125 0 L 12.890625 -44.46875 L 24.890625 -44.46875 L 38.625 0 L 29.15625 0 L 26.234375 -9.71875 L 11.375 -9.71875 L 8.390625 0 Z M 13.21875 -16.828125 L 24.390625 -16.828125 L 18.921875 -36.078125 L 18.609375 -36.078125 Z M 13.21875 -16.828125 "/></g></g></g><g fill="#000000" fill-opacity="1"><g transform="translate(1118.925706, 211.537646)"><g><path d="M 21.15625 0.890625 C 17.71875 0.890625 14.546875 0.046875 11.640625 -1.640625 C 8.742188 -3.335938 6.414062 -5.878906 4.65625 -9.265625 C 2.90625 -12.660156 2.03125 -16.894531 2.03125 -21.96875 C 2.03125 -26.96875 2.894531 -31.203125 4.625 -34.671875 C 6.363281 -38.148438 8.679688 -40.796875 11.578125 -42.609375 C 14.484375 -44.429688 17.695312 -45.34375 21.21875 -45.34375 C 25.070312 -45.34375 28.609375 -44.773438 31.828125 -43.640625 L 31.828125 -35.5 C 30.640625 -35.96875 29.3125 -36.335938 27.84375 -36.609375 C 26.382812 -36.890625 24.722656 -37.03125 22.859375 -37.03125 C 19.390625 -36.988281 16.507812 -35.695312 14.21875 -33.15625 C 11.9375 -30.613281 10.796875 -26.882812 10.796875 -21.96875 C 10.796875 -17.226562 11.882812 -13.640625 14.0625 -11.203125 C 16.25 -8.773438 19.097656 -7.539062 22.609375 -7.5 C 26.128906 -7.5 29.203125 -8.023438 31.828125 -9.078125 L 31.828125 -0.765625 C 30.421875 -0.210938 28.785156 0.195312 26.921875 0.46875 C 25.066406 0.75 23.144531 0.890625 21.15625 0.890625 Z M 21.15625 0.890625 "/></g></g></g><g fill="#000000" fill-opacity="1"><g transform="translate(1153.032495, 211.537646)"><g><path d="M 13.015625 0 L 13.015625 -36.578125 L 0.953125 -36.578125 L 0.953125 -44.46875 L 34.296875 -44.46875 L 34.296875 -36.578125 L 22.234375 -36.578125 L 22.234375 0 Z M 13.015625 0 "/></g></g></g><g fill="#000000" fill-opacity="1"><g transform="translate(1188.917759, 211.537646)"><g><path d="M 3.234375 0 L 3.234375 -44.46875 L 12.515625 -44.46875 L 12.515625 0 Z M 3.234375 0 "/></g></g></g><g fill="#000000" fill-opacity="1"><g transform="translate(1205.304327, 211.537646)"><g><path d="M 2.546875 0 L 2.546875 -44.46875 L 12.265625 -44.46875 L 28.640625 -14.859375 L 28.96875 -14.859375 L 28.96875 -44.46875 L 37.734375 -44.46875 L 37.734375 0 L 28.453125 0 L 12.0625 -27.953125 L 11.8125 -27.953125 L 11.8125 0 Z M 2.546875 0 "/></g></g></g><g fill="#000000" fill-opacity="1"><g transform="translate(1246.207079, 211.537646)"><g><path d="M 23.0625 0.890625 C 19.164062 0.890625 15.671875 0.117188 12.578125 -1.421875 C 9.484375 -2.972656 7.035156 -5.410156 5.234375 -8.734375 C 3.441406 -12.054688 2.546875 -16.382812 2.546875 -21.71875 C 2.546875 -26.675781 3.429688 -30.910156 5.203125 -34.421875 C 6.984375 -37.941406 9.492188 -40.640625 12.734375 -42.515625 C 15.972656 -44.398438 19.773438 -45.34375 24.140625 -45.34375 C 25.867188 -45.34375 27.515625 -45.207031 29.078125 -44.9375 C 30.648438 -44.664062 32.222656 -44.234375 33.796875 -43.640625 L 33.796875 -35.625 C 32.484375 -36.175781 31.125 -36.566406 29.71875 -36.796875 C 28.320312 -37.035156 26.78125 -37.15625 25.09375 -37.15625 C 20.726562 -37.15625 17.335938 -35.820312 14.921875 -33.15625 C 12.515625 -30.488281 11.3125 -26.632812 11.3125 -21.59375 C 11.3125 -18.125 11.734375 -15.382812 12.578125 -13.375 C 13.421875 -11.363281 14.675781 -9.929688 16.34375 -9.078125 C 18.019531 -8.234375 20.085938 -7.8125 22.546875 -7.8125 C 23.390625 -7.8125 24.242188 -7.851562 25.109375 -7.9375 C 25.984375 -8.019531 26.71875 -8.148438 27.3125 -8.328125 L 27.3125 -16.140625 L 19.1875 -16.140625 L 19.1875 -22.921875 L 35 -22.921875 L 35 -1.71875 C 33.382812 -0.78125 31.582031 -0.113281 29.59375 0.28125 C 27.601562 0.6875 25.425781 0.890625 23.0625 0.890625 Z M 23.0625 0.890625 "/></g></g></g></svg>