<svg xmlns="http://www.w3.org/2000/svg" xmlns:xlink="http://www.w3.org/1999/xlink" width="1363" zoomAndPan="magnify" viewBox="0 0 1022.25 1187.249943" height="1583" preserveAspectRatio="xMidYMid meet" version="1.0"><defs><g/><clipPath id="aa47b39f75"><path d="M 37.300781 0.0585938 L 890.921875 0.0585938 L 890.921875 853.683594 L 37.300781 853.683594 Z M 37.300781 0.0585938 " clip-rule="nonzero"/></clipPath><clipPath id="71331a25b0"><rect x="0" width="859" y="0" height="86"/></clipPath></defs><g clip-path="url(#aa47b39f75)"><path fill="#000000" d="M 321.882812 0.0585938 L 250.714844 71.199219 L 179.574219 142.335938 L 108.46875 213.472656 C 108.46875 213.472656 37.300781 284.613281 37.300781 284.613281 L 37.300781 853.777344 L 606.464844 853.777344 L 677.601562 782.640625 C 677.601562 782.640625 891.015625 569.195312 891.015625 569.195312 L 891.015625 0.0585938 Z M 606.433594 569.195312 L 606.464844 569.195312 Z M 393.019531 711.472656 C 393.019531 711.472656 250.714844 711.5 250.714844 711.5 C 250.714844 711.5 250.742188 711.472656 250.742188 711.472656 L 321.882812 640.363281 C 321.882812 640.363281 393.019531 640.332031 393.019531 640.332031 L 464.15625 569.195312 L 464.15625 426.917969 L 321.882812 426.917969 L 393.019531 355.78125 C 393.019531 355.78125 393.050781 355.78125 393.050781 355.78125 L 464.15625 284.671875 L 464.15625 213.503906 L 250.714844 213.503906 L 250.714844 640.394531 L 179.636719 711.5 L 179.574219 711.5 L 179.574219 284.613281 L 250.714844 213.472656 L 321.882812 142.335938 L 535.296875 142.335938 L 535.296875 284.644531 L 464.1875 355.75 L 535.296875 355.75 L 535.296875 569.195312 L 464.1875 640.332031 L 464.15625 640.332031 C 464.15625 640.332031 393.019531 711.472656 393.019531 711.472656 Z M 748.742188 569.195312 L 677.601562 640.332031 L 606.433594 711.472656 L 535.296875 711.472656 C 535.296875 711.472656 464.15625 711.5 464.15625 711.5 C 464.15625 711.5 464.1875 711.472656 464.1875 711.472656 L 535.296875 640.363281 C 535.296875 640.363281 606.433594 640.332031 606.433594 640.332031 L 677.601562 569.195312 L 677.601562 355.78125 L 606.464844 355.78125 L 606.496094 355.78125 C 606.496094 355.78125 606.433594 355.78125 606.433594 355.78125 L 677.601562 284.644531 L 677.632812 284.644531 L 748.710938 213.535156 L 748.742188 213.535156 C 748.742188 213.535156 748.742188 569.226562 748.742188 569.226562 Z M 677.601562 213.472656 L 606.496094 284.613281 L 606.433594 284.613281 L 606.433594 213.472656 L 606.464844 213.472656 C 606.464844 213.472656 677.601562 142.335938 677.601562 142.335938 L 748.742188 142.335938 Z M 677.601562 213.472656 " fill-opacity="1" fill-rule="nonzero"/></g><g transform="matrix(1, 0, 0, 1, 37, 925)"><g clip-path="url(#71331a25b0)"><g fill="#000000" fill-opacity="1"><g transform="translate(0.336473, 57.73264)"><g><path d="M 23.8125 -36.0625 C 22.488281 -36.0625 21.359375 -36.53125 20.421875 -37.46875 C 19.492188 -38.40625 19.03125 -39.535156 19.03125 -40.859375 C 19.03125 -42.140625 19.492188 -43.234375 20.421875 -44.140625 C 21.359375 -45.054688 22.488281 -45.515625 23.8125 -45.515625 C 25.09375 -45.515625 26.1875 -45.054688 27.09375 -44.140625 C 28.007812 -43.234375 28.46875 -42.140625 28.46875 -40.859375 C 28.46875 -39.535156 28.007812 -38.40625 27.09375 -37.46875 C 26.1875 -36.53125 25.09375 -36.0625 23.8125 -36.0625 Z M 35.9375 -36.0625 C 34.601562 -36.0625 33.46875 -36.53125 32.53125 -37.46875 C 31.601562 -38.40625 31.140625 -39.535156 31.140625 -40.859375 C 31.140625 -42.140625 31.601562 -43.234375 32.53125 -44.140625 C 33.46875 -45.054688 34.601562 -45.515625 35.9375 -45.515625 C 37.207031 -45.515625 38.296875 -45.054688 39.203125 -44.140625 C 40.117188 -43.234375 40.578125 -42.140625 40.578125 -40.859375 C 40.578125 -39.535156 40.117188 -38.40625 39.203125 -37.46875 C 38.296875 -36.53125 37.207031 -36.0625 35.9375 -36.0625 Z M 3.359375 -27.09375 L 12.3125 -26.96875 L 12.3125 -24.4375 C 12.3125 -21.425781 12.4375 -18.914062 12.6875 -16.90625 C 12.945312 -14.894531 13.460938 -13.304688 14.234375 -12.140625 C 15.015625 -10.984375 16.191406 -10.164062 17.765625 -9.6875 C 19.335938 -9.207031 21.421875 -8.96875 24.015625 -8.96875 L 43.25 -8.96875 L 43.25 -29.765625 L 53.25 -32.515625 L 53.25 -8.890625 C 53.25 -2.960938 50.828125 0 45.984375 0 L 24.015625 0 C 20.179688 0 17 -0.441406 14.46875 -1.328125 C 11.9375 -2.222656 9.914062 -3.46875 8.40625 -5.0625 C 6.90625 -6.65625 5.800781 -8.476562 5.09375 -10.53125 C 4.382812 -12.59375 3.914062 -14.785156 3.6875 -17.109375 C 3.46875 -19.429688 3.359375 -21.78125 3.359375 -24.15625 Z M 3.359375 -27.09375 "/></g></g></g><g fill="#000000" fill-opacity="1"><g transform="translate(57.066318, 57.73264)"><g><path d="M 3.421875 0 L 3.421875 -8.96875 L 11.703125 -8.96875 L 11.703125 -36 L 22.171875 -38.734375 L 22.171875 -8.96875 L 32.03125 -8.96875 L 32.03125 -48.65625 L 41.890625 -51.390625 L 41.890625 -8.890625 C 41.890625 -2.960938 39.46875 0 34.625 0 Z M 3.421875 0 "/></g></g></g><g fill="#000000" fill-opacity="1"><g transform="translate(102.368081, 57.73264)"><g><path d="M 19.4375 14.296875 C 15.238281 14.296875 11.019531 13.546875 6.78125 12.046875 L 8.28125 5.546875 C 11.695312 6.503906 14.84375 6.984375 17.71875 6.984375 C 20.363281 6.984375 22.382812 6.515625 23.78125 5.578125 C 25.175781 4.640625 25.894531 2.78125 25.9375 0 L 17.9375 0 C 14.832031 0 12.195312 -0.671875 10.03125 -2.015625 C 7.863281 -3.359375 6.21875 -5.160156 5.09375 -7.421875 C 3.976562 -9.679688 3.421875 -12.203125 3.421875 -14.984375 C 3.421875 -18.410156 4.054688 -21.445312 5.328125 -24.09375 C 6.609375 -26.738281 8.570312 -28.800781 11.21875 -30.28125 C 13.863281 -31.769531 17.21875 -32.515625 21.28125 -32.515625 C 25.84375 -32.515625 30.769531 -31.597656 36.0625 -29.765625 L 36.0625 -0.546875 C 36.0625 4.109375 34.566406 7.742188 31.578125 10.359375 C 28.585938 12.984375 24.539062 14.296875 19.4375 14.296875 Z M 20.046875 -8.6875 L 25.9375 -8.6875 L 25.9375 -23.0625 C 23.976562 -23.613281 22.289062 -23.890625 20.875 -23.890625 C 18.269531 -23.890625 16.328125 -23.132812 15.046875 -21.625 C 13.773438 -20.125 13.140625 -18.234375 13.140625 -15.953125 C 13.140625 -13.847656 13.789062 -12.109375 15.09375 -10.734375 C 16.394531 -9.367188 18.046875 -8.6875 20.046875 -8.6875 Z M 20.046875 -8.6875 "/></g></g></g><g fill="#000000" fill-opacity="1"><g transform="translate(141.784719, 57.73264)"><g><path d="M 10.671875 0 C 5.929688 0 3.5625 -2.960938 3.5625 -8.890625 L 3.5625 -48.65625 L 13.546875 -51.390625 L 13.546875 -8.96875 L 20.125 -8.96875 L 20.125 0 Z M 10.671875 0 "/></g></g></g><g fill="#000000" fill-opacity="1"><g transform="translate(161.219304, 57.73264)"><g><path d="M 20.390625 -36.0625 C 19.066406 -36.0625 17.9375 -36.53125 17 -37.46875 C 16.070312 -38.40625 15.609375 -39.535156 15.609375 -40.859375 C 15.609375 -42.140625 16.070312 -43.234375 17 -44.140625 C 17.9375 -45.054688 19.066406 -45.515625 20.390625 -45.515625 C 21.671875 -45.515625 22.765625 -45.054688 23.671875 -44.140625 C 24.585938 -43.234375 25.046875 -42.140625 25.046875 -40.859375 C 25.046875 -39.535156 24.585938 -38.40625 23.671875 -37.46875 C 22.765625 -36.53125 21.671875 -36.0625 20.390625 -36.0625 Z M 32.515625 -36.0625 C 31.179688 -36.0625 30.046875 -36.53125 29.109375 -37.46875 C 28.179688 -38.40625 27.71875 -39.535156 27.71875 -40.859375 C 27.71875 -42.140625 28.179688 -43.234375 29.109375 -44.140625 C 30.046875 -45.054688 31.179688 -45.515625 32.515625 -45.515625 C 33.785156 -45.515625 34.875 -45.054688 35.78125 -44.140625 C 36.695312 -43.234375 37.15625 -42.140625 37.15625 -40.859375 C 37.15625 -39.535156 36.695312 -38.40625 35.78125 -37.46875 C 34.875 -36.53125 33.785156 -36.0625 32.515625 -36.0625 Z M 39.5625 -8.96875 L 49.140625 -8.96875 L 49.140625 0 L -0.6875 0 L -0.6875 -8.96875 L 10.0625 -8.96875 C 9.144531 -9.601562 8.398438 -10.535156 7.828125 -11.765625 C 7.265625 -13.003906 6.984375 -14.421875 6.984375 -16.015625 C 6.984375 -19.117188 7.617188 -21.910156 8.890625 -24.390625 C 10.171875 -26.878906 12.132812 -28.851562 14.78125 -30.3125 C 17.425781 -31.78125 20.78125 -32.515625 24.84375 -32.515625 C 29.5 -32.515625 34.40625 -31.597656 39.5625 -29.765625 Z M 29.421875 -8.6875 L 29.421875 -23.0625 C 27.503906 -23.613281 25.84375 -23.890625 24.4375 -23.890625 C 21.832031 -23.890625 19.890625 -23.132812 18.609375 -21.625 C 17.335938 -20.125 16.703125 -18.234375 16.703125 -15.953125 C 16.703125 -13.941406 17.328125 -12.226562 18.578125 -10.8125 C 19.835938 -9.394531 21.515625 -8.6875 23.609375 -8.6875 Z M 29.421875 -8.6875 "/></g></g></g><g fill="#000000" fill-opacity="1"><g transform="translate(209.668942, 57.73264)"><g><path d="M 46.40625 -8.96875 L 46.40625 0 C 44.53125 0 42.789062 -0.210938 41.1875 -0.640625 C 39.59375 -1.078125 38.160156 -1.800781 36.890625 -2.8125 C 35.609375 -0.613281 33.800781 1.085938 31.46875 2.296875 C 29.144531 3.503906 26.296875 4.109375 22.921875 4.109375 C 19.734375 4.109375 16.953125 3.476562 14.578125 2.21875 C 12.203125 0.96875 10.351562 -0.816406 9.03125 -3.140625 C 7.800781 -2.003906 6.382812 -1.195312 4.78125 -0.71875 C 3.1875 -0.238281 1.390625 0 -0.609375 0 L -0.609375 -8.96875 C 1.304688 -8.96875 2.957031 -9.457031 4.34375 -10.4375 C 5.738281 -11.414062 6.664062 -12.75 7.125 -14.4375 C 7.34375 -18.90625 8.851562 -22.472656 11.65625 -25.140625 C 14.46875 -27.816406 18.222656 -29.15625 22.921875 -29.15625 C 28.078125 -29.15625 32.054688 -27.75 34.859375 -24.9375 C 37.671875 -22.132812 39.125 -18.222656 39.21875 -13.203125 C 39.8125 -11.878906 40.742188 -10.84375 42.015625 -10.09375 C 43.296875 -9.34375 44.757812 -8.96875 46.40625 -8.96875 Z M 22.921875 -4.921875 C 25.335938 -4.921875 27.082031 -5.582031 28.15625 -6.90625 C 29.226562 -8.226562 29.765625 -10.125 29.765625 -12.59375 C 29.765625 -15.007812 29.21875 -16.867188 28.125 -18.171875 C 27.03125 -19.472656 25.296875 -20.125 22.921875 -20.125 C 20.734375 -20.125 19.054688 -19.472656 17.890625 -18.171875 C 16.734375 -16.867188 16.15625 -15.007812 16.15625 -12.59375 C 16.15625 -10.175781 16.734375 -8.289062 17.890625 -6.9375 C 19.054688 -5.59375 20.734375 -4.921875 22.921875 -4.921875 Z M 22.921875 -4.921875 "/></g></g></g><g fill="#000000" fill-opacity="1"><g transform="translate(255.381286, 57.73264)"><g><path d="M 15.8125 -8.96875 L 22.859375 -8.96875 L 22.859375 0 L -0.6875 0 L -0.6875 -8.96875 L 5.890625 -8.96875 L 5.890625 -48.65625 L 15.8125 -51.390625 Z M 15.8125 -8.96875 "/></g></g></g><g fill="#000000" fill-opacity="1"><g transform="translate(277.553148, 57.73264)"><g><path d="M -0.6875 0 L -0.6875 -8.96875 L 5.890625 -8.96875 L 5.890625 -48.65625 L 15.8125 -51.390625 L 15.8125 -8.890625 C 15.8125 -2.960938 13.394531 0 8.5625 0 Z M -0.6875 0 "/></g></g></g><g fill="#000000" fill-opacity="1"><g transform="translate(296.782433, 57.73264)"><g/></g></g><g fill="#000000" fill-opacity="1"><g transform="translate(310.126621, 57.73264)"><g><path d="M 15.1875 -36.0625 C 13.863281 -36.0625 12.734375 -36.53125 11.796875 -37.46875 C 10.867188 -38.40625 10.40625 -39.535156 10.40625 -40.859375 C 10.40625 -42.140625 10.867188 -43.234375 11.796875 -44.140625 C 12.734375 -45.054688 13.863281 -45.515625 15.1875 -45.515625 C 16.46875 -45.515625 17.5625 -45.054688 18.46875 -44.140625 C 19.382812 -43.234375 19.84375 -42.140625 19.84375 -40.859375 C 19.84375 -39.535156 19.382812 -38.40625 18.46875 -37.46875 C 17.5625 -36.53125 16.46875 -36.0625 15.1875 -36.0625 Z M 27.3125 -36.0625 C 25.988281 -36.0625 24.859375 -36.53125 23.921875 -37.46875 C 22.984375 -38.40625 22.515625 -39.535156 22.515625 -40.859375 C 22.515625 -42.140625 22.984375 -43.234375 23.921875 -44.140625 C 24.859375 -45.054688 25.988281 -45.515625 27.3125 -45.515625 C 28.582031 -45.515625 29.671875 -45.054688 30.578125 -44.140625 C 31.492188 -43.234375 31.953125 -42.140625 31.953125 -40.859375 C 31.953125 -39.535156 31.492188 -38.40625 30.578125 -37.46875 C 29.671875 -36.53125 28.582031 -36.0625 27.3125 -36.0625 Z M 17.9375 0 C 14.832031 0 12.195312 -0.671875 10.03125 -2.015625 C 7.863281 -3.359375 6.21875 -5.160156 5.09375 -7.421875 C 3.976562 -9.679688 3.421875 -12.203125 3.421875 -14.984375 C 3.421875 -18.410156 4.054688 -21.445312 5.328125 -24.09375 C 6.609375 -26.738281 8.570312 -28.800781 11.21875 -30.28125 C 13.863281 -31.769531 17.21875 -32.515625 21.28125 -32.515625 C 25.894531 -32.515625 30.800781 -31.597656 36 -29.765625 L 36 -8.96875 C 36 -2.988281 33.582031 0 28.75 0 Z M 20.046875 -8.6875 L 25.9375 -8.6875 L 25.9375 -23.0625 C 23.976562 -23.613281 22.289062 -23.890625 20.875 -23.890625 C 18.269531 -23.890625 16.328125 -23.132812 15.046875 -21.625 C 13.773438 -20.125 13.140625 -18.234375 13.140625 -15.953125 C 13.140625 -13.847656 13.789062 -12.109375 15.09375 -10.734375 C 16.394531 -9.367188 18.046875 -8.6875 20.046875 -8.6875 Z M 20.046875 -8.6875 "/></g></g></g><g fill="#000000" fill-opacity="1"><g transform="translate(346.942725, 57.73264)"><g><path d="M 33.609375 -8.96875 L 33.609375 0 L 28.265625 0 C 27.765625 4.695312 26.109375 8.253906 23.296875 10.671875 C 20.492188 13.085938 16.5625 14.296875 11.5 14.296875 C 7.476562 14.296875 3.644531 13.382812 0 11.5625 L 1.984375 3.703125 C 4.671875 4.660156 7.179688 5.140625 9.515625 5.140625 C 12.253906 5.140625 14.441406 4.328125 16.078125 2.703125 C 17.722656 1.085938 18.546875 -0.953125 18.546875 -3.421875 L 18.546875 -29.90625 L 28.46875 -32.640625 L 28.46875 -8.96875 Z M 33.609375 -8.96875 "/></g></g></g><g fill="#000000" fill-opacity="1"><g transform="translate(379.85834, 57.73264)"><g><path d="M 15.953125 -29.84375 L 25.875 -32.578125 L 25.875 -8.765625 C 25.875 -2.921875 23.5 0 18.75 0 L -0.6875 0 L -0.6875 -8.96875 L 15.953125 -8.96875 Z M 7.53125 3.421875 C 8.800781 3.421875 9.894531 3.875 10.8125 4.78125 C 11.726562 5.695312 12.1875 6.796875 12.1875 8.078125 C 12.1875 9.398438 11.726562 10.523438 10.8125 11.453125 C 9.894531 12.390625 8.800781 12.859375 7.53125 12.859375 C 6.207031 12.859375 5.078125 12.390625 4.140625 11.453125 C 3.203125 10.523438 2.734375 9.398438 2.734375 8.078125 C 2.734375 6.796875 3.203125 5.695312 4.140625 4.78125 C 5.078125 3.875 6.207031 3.421875 7.53125 3.421875 Z M 19.640625 3.421875 C 20.921875 3.421875 22.015625 3.875 22.921875 4.78125 C 23.835938 5.695312 24.296875 6.796875 24.296875 8.078125 C 24.296875 9.398438 23.835938 10.523438 22.921875 11.453125 C 22.015625 12.390625 20.921875 12.859375 19.640625 12.859375 C 18.316406 12.859375 17.1875 12.390625 16.25 11.453125 C 15.3125 10.523438 14.84375 9.398438 14.84375 8.078125 C 14.84375 6.796875 15.3125 5.695312 16.25 4.78125 C 17.1875 3.875 18.316406 3.421875 19.640625 3.421875 Z M 19.640625 3.421875 "/></g></g></g><g fill="#000000" fill-opacity="1"><g transform="translate(406.683413, 57.73264)"><g><path d="M 23.203125 -36.0625 C 21.878906 -36.0625 20.75 -36.53125 19.8125 -37.46875 C 18.875 -38.40625 18.40625 -39.535156 18.40625 -40.859375 C 18.40625 -42.140625 18.875 -43.234375 19.8125 -44.140625 C 20.75 -45.054688 21.878906 -45.515625 23.203125 -45.515625 C 24.472656 -45.515625 25.566406 -45.054688 26.484375 -44.140625 C 27.398438 -43.234375 27.859375 -42.140625 27.859375 -40.859375 C 27.859375 -39.535156 27.398438 -38.40625 26.484375 -37.46875 C 25.566406 -36.53125 24.472656 -36.0625 23.203125 -36.0625 Z M 33.53125 -8.96875 L 33.53125 0 L 28.203125 0 C 27.691406 4.695312 26.035156 8.253906 23.234375 10.671875 C 20.429688 13.085938 16.492188 14.296875 11.421875 14.296875 C 7.410156 14.296875 3.582031 13.382812 -0.0625 11.5625 L 1.921875 3.703125 C 4.609375 4.660156 7.113281 5.140625 9.4375 5.140625 C 12.175781 5.140625 14.367188 4.328125 16.015625 2.703125 C 17.660156 1.085938 18.484375 -0.953125 18.484375 -3.421875 L 18.484375 -29.90625 L 28.40625 -32.640625 L 28.40625 -8.96875 Z M 33.53125 -8.96875 "/></g></g></g><g fill="#000000" fill-opacity="1"><g transform="translate(439.599065, 57.73264)"><g><path d="M 41.34375 -8.96875 L 41.34375 0 L -0.6875 0 L -0.6875 -8.96875 L 27.3125 -8.96875 C 24.476562 -18.363281 20.78125 -23.0625 16.21875 -23.0625 C 14.125 -23.0625 11.796875 -22.125 9.234375 -20.25 L 3.828125 -27.375 C 8.304688 -30.882812 12.570312 -32.640625 16.625 -32.640625 C 20.957031 -32.640625 24.800781 -30.628906 28.15625 -26.609375 C 31.507812 -22.597656 34.328125 -16.71875 36.609375 -8.96875 Z M 16.625 3.421875 C 17.90625 3.421875 19 3.875 19.90625 4.78125 C 20.820312 5.695312 21.28125 6.816406 21.28125 8.140625 C 21.28125 9.460938 20.820312 10.578125 19.90625 11.484375 C 19 12.398438 17.90625 12.859375 16.625 12.859375 C 15.300781 12.859375 14.171875 12.398438 13.234375 11.484375 C 12.304688 10.578125 11.84375 9.460938 11.84375 8.140625 C 11.84375 6.816406 12.304688 5.695312 13.234375 4.78125 C 14.171875 3.875 15.300781 3.421875 16.625 3.421875 Z M 16.625 3.421875 "/></g></g></g><g fill="#000000" fill-opacity="1"><g transform="translate(480.247472, 57.73264)"><g><path d="M -0.6875 0 L -0.6875 -8.96875 L 5.890625 -8.96875 L 5.890625 -48.65625 L 15.8125 -51.390625 L 15.8125 -8.890625 C 15.8125 -2.960938 13.394531 0 8.5625 0 Z M -0.6875 0 "/></g></g></g><g fill="#000000" fill-opacity="1"><g transform="translate(499.476739, 57.73264)"><g><path d="M 3.421875 0 L 3.421875 -48.65625 L 13.890625 -51.390625 L 13.890625 0 Z M 3.421875 0 "/></g></g></g><g fill="#000000" fill-opacity="1"><g transform="translate(516.789964, 57.73264)"><g/></g></g><g fill="#000000" fill-opacity="1"><g transform="translate(530.134151, 57.73264)"><g><path d="M 25.328125 14.296875 C 22.628906 14.296875 19.976562 13.863281 17.375 13 C 14.78125 12.132812 12.429688 10.867188 10.328125 9.203125 C 8.234375 7.535156 6.554688 5.492188 5.296875 3.078125 C 4.046875 0.660156 3.421875 -2.097656 3.421875 -5.203125 L 3.421875 -14.296875 L 12.390625 -14.296875 L 12.390625 -5.203125 C 12.390625 -2.878906 12.96875 -0.929688 14.125 0.640625 C 15.289062 2.222656 16.851562 3.410156 18.8125 4.203125 C 20.78125 5.003906 22.953125 5.40625 25.328125 5.40625 C 28.148438 5.40625 30.492188 4.925781 32.359375 3.96875 C 34.234375 3.007812 35.5625 1.6875 36.34375 0 L 31.75 0 L 31.75 -8.96875 L 52.625 -8.96875 L 52.625 0 L 47.015625 0 C 46.378906 2.875 45.078125 5.382812 43.109375 7.53125 C 41.148438 9.675781 38.664062 11.335938 35.65625 12.515625 C 32.644531 13.703125 29.203125 14.296875 25.328125 14.296875 Z M 19.296875 27.171875 C 17.972656 27.171875 16.84375 26.710938 15.90625 25.796875 C 14.976562 24.890625 14.515625 23.773438 14.515625 22.453125 C 14.515625 21.128906 14.976562 20.007812 15.90625 19.09375 C 16.84375 18.175781 17.972656 17.71875 19.296875 17.71875 C 20.578125 17.71875 21.671875 18.175781 22.578125 19.09375 C 23.492188 20.007812 23.953125 21.128906 23.953125 22.453125 C 23.953125 23.773438 23.492188 24.890625 22.578125 25.796875 C 21.671875 26.710938 20.578125 27.171875 19.296875 27.171875 Z M 31.40625 27.171875 C 30.082031 27.171875 28.953125 26.710938 28.015625 25.796875 C 27.085938 24.890625 26.625 23.773438 26.625 22.453125 C 26.625 21.128906 27.085938 20.007812 28.015625 19.09375 C 28.953125 18.175781 30.082031 17.71875 31.40625 17.71875 C 32.6875 17.71875 33.78125 18.175781 34.6875 19.09375 C 35.601562 20.007812 36.0625 21.128906 36.0625 22.453125 C 36.0625 23.773438 35.601562 24.890625 34.6875 25.796875 C 33.78125 26.710938 32.6875 27.171875 31.40625 27.171875 Z M 31.40625 27.171875 "/></g></g></g><g fill="#000000" fill-opacity="1"><g transform="translate(582.073752, 57.73264)"><g><path d="M 11.015625 -36.0625 C 9.691406 -36.0625 8.5625 -36.53125 7.625 -37.46875 C 6.695312 -38.40625 6.234375 -39.535156 6.234375 -40.859375 C 6.234375 -42.140625 6.695312 -43.234375 7.625 -44.140625 C 8.5625 -45.054688 9.691406 -45.515625 11.015625 -45.515625 C 12.296875 -45.515625 13.390625 -45.054688 14.296875 -44.140625 C 15.210938 -43.234375 15.671875 -42.140625 15.671875 -40.859375 C 15.671875 -39.535156 15.210938 -38.40625 14.296875 -37.46875 C 13.390625 -36.53125 12.296875 -36.0625 11.015625 -36.0625 Z M -0.6875 0 L -0.6875 -8.96875 L 6.5625 -8.96875 L 6.5625 -29.84375 L 16.5625 -32.578125 L 16.5625 -8.765625 C 16.5625 -2.921875 14.1875 0 9.4375 0 Z M -0.6875 0 "/></g></g></g><g fill="#000000" fill-opacity="1"><g transform="translate(602.192693, 57.73264)"><g><path d="M 3.421875 0 L 3.421875 -48.65625 L 13.890625 -51.390625 L 13.890625 0 Z M 3.421875 0 "/></g></g></g><g fill="#000000" fill-opacity="1"><g transform="translate(619.505918, 57.73264)"><g><path d="M 41.34375 -8.96875 L 41.34375 0 L 36.0625 0 C 35.925781 4.46875 34.375 7.96875 31.40625 10.5 C 28.445312 13.03125 24.457031 14.296875 19.4375 14.296875 C 15.238281 14.296875 11.019531 13.546875 6.78125 12.046875 L 8.28125 5.546875 C 11.695312 6.503906 14.84375 6.984375 17.71875 6.984375 C 20.363281 6.984375 22.382812 6.515625 23.78125 5.578125 C 25.175781 4.640625 25.894531 2.78125 25.9375 0 L 17.9375 0 C 14.832031 0 12.195312 -0.671875 10.03125 -2.015625 C 7.863281 -3.359375 6.21875 -5.160156 5.09375 -7.421875 C 3.976562 -9.679688 3.421875 -12.203125 3.421875 -14.984375 C 3.421875 -18.410156 4.054688 -21.445312 5.328125 -24.09375 C 6.609375 -26.738281 8.570312 -28.800781 11.21875 -30.28125 C 13.863281 -31.769531 17.21875 -32.515625 21.28125 -32.515625 C 25.84375 -32.515625 30.769531 -31.597656 36.0625 -29.765625 L 36.0625 -8.96875 Z M 25.9375 -8.6875 L 25.9375 -23.0625 C 23.976562 -23.613281 22.289062 -23.890625 20.875 -23.890625 C 18.269531 -23.890625 16.328125 -23.132812 15.046875 -21.625 C 13.773438 -20.125 13.140625 -18.234375 13.140625 -15.953125 C 13.140625 -13.847656 13.789062 -12.109375 15.09375 -10.734375 C 16.394531 -9.367188 18.046875 -8.6875 20.046875 -8.6875 Z M 25.9375 -8.6875 "/></g></g></g><g fill="#000000" fill-opacity="1"><g transform="translate(660.154288, 57.73264)"><g><path d="M -0.6875 0 L -0.6875 -8.96875 L 6.5625 -8.96875 L 6.5625 -29.84375 L 16.5625 -32.578125 L 16.5625 -8.765625 C 16.5625 -2.921875 14.1875 0 9.4375 0 Z M 10.75 12.859375 C 9.425781 12.859375 8.296875 12.398438 7.359375 11.484375 C 6.421875 10.578125 5.953125 9.460938 5.953125 8.140625 C 5.953125 6.816406 6.421875 5.695312 7.359375 4.78125 C 8.296875 3.875 9.425781 3.421875 10.75 3.421875 C 12.019531 3.421875 13.113281 3.875 14.03125 4.78125 C 14.945312 5.695312 15.40625 6.816406 15.40625 8.140625 C 15.40625 9.460938 14.945312 10.578125 14.03125 11.484375 C 13.113281 12.398438 12.019531 12.859375 10.75 12.859375 Z M 10.75 12.859375 "/></g></g></g><g fill="#000000" fill-opacity="1"><g transform="translate(680.273229, 57.73264)"><g/></g></g><g fill="#000000" fill-opacity="1"><g transform="translate(693.617416, 57.73264)"><g><path d="M 15.1875 -36.0625 C 13.863281 -36.0625 12.734375 -36.53125 11.796875 -37.46875 C 10.867188 -38.40625 10.40625 -39.535156 10.40625 -40.859375 C 10.40625 -42.140625 10.867188 -43.234375 11.796875 -44.140625 C 12.734375 -45.054688 13.863281 -45.515625 15.1875 -45.515625 C 16.46875 -45.515625 17.5625 -45.054688 18.46875 -44.140625 C 19.382812 -43.234375 19.84375 -42.140625 19.84375 -40.859375 C 19.84375 -39.535156 19.382812 -38.40625 18.46875 -37.46875 C 17.5625 -36.53125 16.46875 -36.0625 15.1875 -36.0625 Z M 27.3125 -36.0625 C 25.988281 -36.0625 24.859375 -36.53125 23.921875 -37.46875 C 22.984375 -38.40625 22.515625 -39.535156 22.515625 -40.859375 C 22.515625 -42.140625 22.984375 -43.234375 23.921875 -44.140625 C 24.859375 -45.054688 25.988281 -45.515625 27.3125 -45.515625 C 28.582031 -45.515625 29.671875 -45.054688 30.578125 -44.140625 C 31.492188 -43.234375 31.953125 -42.140625 31.953125 -40.859375 C 31.953125 -39.535156 31.492188 -38.40625 30.578125 -37.46875 C 29.671875 -36.53125 28.582031 -36.0625 27.3125 -36.0625 Z M 17.9375 0 C 14.832031 0 12.195312 -0.671875 10.03125 -2.015625 C 7.863281 -3.359375 6.21875 -5.160156 5.09375 -7.421875 C 3.976562 -9.679688 3.421875 -12.203125 3.421875 -14.984375 C 3.421875 -18.410156 4.054688 -21.445312 5.328125 -24.09375 C 6.609375 -26.738281 8.570312 -28.800781 11.21875 -30.28125 C 13.863281 -31.769531 17.21875 -32.515625 21.28125 -32.515625 C 25.894531 -32.515625 30.800781 -31.597656 36 -29.765625 L 36 -8.96875 L 42.15625 -8.96875 L 42.15625 0 Z M 20.046875 -8.6875 L 25.9375 -8.6875 L 25.9375 -23.0625 C 23.976562 -23.613281 22.289062 -23.890625 20.875 -23.890625 C 18.269531 -23.890625 16.328125 -23.132812 15.046875 -21.625 C 13.773438 -20.125 13.140625 -18.234375 13.140625 -15.953125 C 13.140625 -13.847656 13.789062 -12.109375 15.09375 -10.734375 C 16.394531 -9.367188 18.046875 -8.6875 20.046875 -8.6875 Z M 20.046875 -8.6875 "/></g></g></g><g fill="#000000" fill-opacity="1"><g transform="translate(735.086985, 57.73264)"><g><path d="M -0.6875 0 L -0.6875 -8.96875 L 22.65625 -8.828125 L 22.65625 -14.171875 C 22.5625 -17.128906 21.929688 -19.472656 20.765625 -21.203125 C 19.609375 -22.941406 17.785156 -24.175781 15.296875 -24.90625 C 12.804688 -25.632812 9.488281 -25.957031 5.34375 -25.875 L 5.34375 -34.828125 L 28.8125 -51.46875 L 28.8125 -41.75 L 17.25 -33.1875 C 20.4375 -33.050781 23.078125 -32.09375 25.171875 -30.3125 C 27.273438 -28.539062 28.851562 -26.257812 29.90625 -23.46875 C 30.957031 -20.6875 31.503906 -17.675781 31.546875 -14.4375 L 31.546875 -8.765625 C 31.546875 -2.921875 29.128906 0 24.296875 0 Z M -0.6875 0 "/></g></g></g><g fill="#000000" fill-opacity="1"><g transform="translate(767.455014, 57.73264)"><g><path d="M 33.609375 -8.96875 L 33.609375 0 L 28.265625 0 C 27.765625 4.695312 26.109375 8.253906 23.296875 10.671875 C 20.492188 13.085938 16.5625 14.296875 11.5 14.296875 C 7.476562 14.296875 3.644531 13.382812 0 11.5625 L 1.984375 3.703125 C 4.671875 4.660156 7.179688 5.140625 9.515625 5.140625 C 12.253906 5.140625 14.441406 4.328125 16.078125 2.703125 C 17.722656 1.085938 18.546875 -0.953125 18.546875 -3.421875 L 18.546875 -29.90625 L 28.46875 -32.640625 L 28.46875 -8.96875 Z M 33.609375 -8.96875 "/></g></g></g><g fill="#000000" fill-opacity="1"><g transform="translate(800.370629, 57.73264)"><g><path d="M 31.078125 -47.15625 C 29.796875 -47.15625 28.6875 -47.617188 27.75 -48.546875 C 26.8125 -49.484375 26.34375 -50.613281 26.34375 -51.9375 C 26.34375 -53.21875 26.8125 -54.3125 27.75 -55.21875 C 28.6875 -56.132812 29.796875 -56.59375 31.078125 -56.59375 C 32.398438 -56.59375 33.515625 -56.132812 34.421875 -55.21875 C 35.335938 -54.3125 35.796875 -53.21875 35.796875 -51.9375 C 35.796875 -50.613281 35.335938 -49.484375 34.421875 -48.546875 C 33.515625 -47.617188 32.398438 -47.15625 31.078125 -47.15625 Z M 25.046875 -36.0625 C 23.722656 -36.0625 22.59375 -36.53125 21.65625 -37.46875 C 20.71875 -38.40625 20.25 -39.535156 20.25 -40.859375 C 20.25 -42.140625 20.71875 -43.234375 21.65625 -44.140625 C 22.59375 -45.054688 23.722656 -45.515625 25.046875 -45.515625 C 26.328125 -45.515625 27.421875 -45.054688 28.328125 -44.140625 C 29.242188 -43.234375 29.703125 -42.140625 29.703125 -40.859375 C 29.703125 -39.535156 29.242188 -38.40625 28.328125 -37.46875 C 27.421875 -36.53125 26.328125 -36.0625 25.046875 -36.0625 Z M 37.15625 -36.0625 C 35.832031 -36.0625 34.703125 -36.53125 33.765625 -37.46875 C 32.835938 -38.40625 32.375 -39.535156 32.375 -40.859375 C 32.375 -42.140625 32.835938 -43.234375 33.765625 -44.140625 C 34.703125 -45.054688 35.832031 -45.515625 37.15625 -45.515625 C 38.4375 -45.515625 39.53125 -45.054688 40.4375 -44.140625 C 41.351562 -43.234375 41.8125 -42.140625 41.8125 -40.859375 C 41.8125 -39.535156 41.351562 -38.40625 40.4375 -37.46875 C 39.53125 -36.53125 38.4375 -36.0625 37.15625 -36.0625 Z M -0.6875 0 L -0.6875 -8.96875 L 7.671875 -8.96875 L 7.671875 -30.109375 L 17.65625 -32.84375 L 17.65625 -8.96875 L 26.140625 -8.96875 L 26.140625 -21.421875 L 36.0625 -24.15625 L 36.0625 -8.96875 L 44.28125 -8.96875 L 44.28125 -30.109375 L 54.203125 -32.84375 L 54.203125 -8.890625 C 54.203125 -2.960938 51.785156 0 46.953125 0 Z M -0.6875 0 "/></g></g></g></g></g><g fill="#000000" fill-opacity="1"><g transform="translate(37.865279, 1079.686183)"><g><path d="M 2.65625 0 L 2.65625 -39.609375 L 18.28125 -39.609375 C 22.164062 -39.609375 25.148438 -38.726562 27.234375 -36.96875 C 29.328125 -35.21875 30.394531 -32.773438 30.4375 -29.640625 C 30.4375 -27.347656 29.972656 -25.453125 29.046875 -23.953125 C 28.128906 -22.460938 26.988281 -21.398438 25.625 -20.765625 C 27.289062 -20.160156 28.734375 -19.066406 29.953125 -17.484375 C 31.179688 -15.898438 31.796875 -13.75 31.796875 -11.03125 C 31.796875 -8.394531 31.132812 -6.273438 29.8125 -4.671875 C 28.5 -3.066406 26.765625 -1.882812 24.609375 -1.125 C 22.460938 -0.375 20.125 0 17.59375 0 Z M 10.859375 -23.03125 L 18.15625 -23.03125 C 19.632812 -23.175781 20.75 -23.738281 21.5 -24.71875 C 22.25 -25.707031 22.609375 -26.898438 22.578125 -28.296875 C 22.503906 -31.679688 20.675781 -33.375 17.09375 -33.375 L 10.859375 -33.375 Z M 10.859375 -6.34375 L 17.03125 -6.34375 C 18.164062 -6.34375 19.226562 -6.507812 20.21875 -6.84375 C 21.21875 -7.1875 22.039062 -7.753906 22.6875 -8.546875 C 23.332031 -9.335938 23.65625 -10.429688 23.65625 -11.828125 C 23.65625 -13.828125 23.144531 -15.203125 22.125 -15.953125 C 21.101562 -16.710938 19.875 -17.144531 18.4375 -17.25 L 10.859375 -17.25 Z M 10.859375 -6.34375 "/></g></g></g><g fill="#000000" fill-opacity="1"><g transform="translate(72.551007, 1079.686183)"><g><path d="M -0.109375 0 L 11.484375 -39.609375 L 22.171875 -39.609375 L 34.40625 0 L 25.96875 0 L 23.359375 -8.65625 L 10.125 -8.65625 L 7.46875 0 Z M 11.765625 -15 L 21.71875 -15 L 16.859375 -32.140625 L 16.578125 -32.140625 Z M 11.765625 -15 "/></g></g></g><g fill="#000000" fill-opacity="1"><g transform="translate(107.46307, 1079.686183)"><g><path d="M 7.125 0 L 0.28125 -39.609375 L 8.09375 -39.609375 L 12.78125 -14.25 L 12.953125 -14.25 L 20.140625 -39.03125 L 25.75 -39.03125 L 32.921875 -14.25 L 33.09375 -14.25 L 37.796875 -39.609375 L 45.609375 -39.609375 L 38.75 0 L 30.375 0 L 23.140625 -24.109375 L 22.921875 -24.109375 L 15.5 0 Z M 7.125 0 "/></g></g></g><g fill="#000000" fill-opacity="1"><g transform="translate(154.144506, 1079.686183)"><g><path d="M -0.109375 0 L 11.484375 -39.609375 L 22.171875 -39.609375 L 34.40625 0 L 25.96875 0 L 23.359375 -8.65625 L 10.125 -8.65625 L 7.46875 0 Z M 11.765625 -15 L 21.71875 -15 L 16.859375 -32.140625 L 16.578125 -32.140625 Z M 11.765625 -15 "/></g></g></g><g fill="#000000" fill-opacity="1"><g transform="translate(189.056569, 1079.686183)"><g><path d="M 2.265625 0 L 2.265625 -39.609375 L 10.921875 -39.609375 L 25.515625 -13.234375 L 25.796875 -13.234375 L 25.796875 -39.609375 L 33.609375 -39.609375 L 33.609375 0 L 25.34375 0 L 10.75 -24.890625 L 10.53125 -24.890625 L 10.53125 0 Z M 2.265625 0 "/></g></g></g><g fill="#000000" fill-opacity="1"><g transform="translate(225.496385, 1079.686183)"><g><path d="M 2.890625 0 L 2.890625 -39.609375 L 11.140625 -39.609375 L 11.140625 0 Z M 2.890625 0 "/></g></g></g><g fill="#000000" fill-opacity="1"><g transform="translate(240.094973, 1079.686183)"><g/></g></g><g fill="#000000" fill-opacity="1"><g transform="translate(251.694639, 1079.686183)"><g><path d="M -0.109375 0 L 11.484375 -39.609375 L 22.171875 -39.609375 L 34.40625 0 L 25.96875 0 L 23.359375 -8.65625 L 10.125 -8.65625 L 7.46875 0 Z M 11.765625 -15 L 21.71875 -15 L 16.859375 -32.140625 L 16.578125 -32.140625 Z M 11.765625 -15 "/></g></g></g><g fill="#000000" fill-opacity="1"><g transform="translate(286.606691, 1079.686183)"><g><path d="M 2.65625 0 L 2.65625 -39.609375 L 10.859375 -39.609375 L 10.859375 -7.40625 L 25.234375 -7.40625 L 25.234375 0 Z M 2.65625 0 "/></g></g></g><g fill="#000000" fill-opacity="1"><g transform="translate(313.257593, 1079.686183)"><g><path d="M 1.984375 -14.421875 L 1.984375 -21.390625 L 18.28125 -21.390625 L 18.28125 -14.421875 Z M 1.984375 -14.421875 "/></g></g></g><g fill="#000000" fill-opacity="1"><g transform="translate(334.080359, 1079.686183)"><g><path d="M 8.65625 0.671875 C 7.144531 0.671875 5.597656 0.507812 4.015625 0.1875 C 2.429688 -0.125 0.921875 -0.617188 -0.515625 -1.296875 L 0.96875 -7.296875 C 1.863281 -6.960938 2.734375 -6.695312 3.578125 -6.5 C 4.429688 -6.3125 5.425781 -6.21875 6.5625 -6.21875 C 8.5625 -6.21875 10.085938 -6.941406 11.140625 -8.390625 C 12.203125 -9.847656 12.734375 -11.707031 12.734375 -13.96875 L 12.734375 -39.609375 L 20.9375 -39.609375 L 20.9375 -11.59375 C 20.9375 -8.726562 20.367188 -6.390625 19.234375 -4.578125 C 18.109375 -2.765625 16.617188 -1.4375 14.765625 -0.59375 C 12.921875 0.25 10.882812 0.671875 8.65625 0.671875 Z M 8.65625 0.671875 "/></g></g></g><g fill="#000000" fill-opacity="1"><g transform="translate(358.807409, 1079.686183)"><g><path d="M -0.109375 0 L 11.484375 -39.609375 L 22.171875 -39.609375 L 34.40625 0 L 25.96875 0 L 23.359375 -8.65625 L 10.125 -8.65625 L 7.46875 0 Z M 11.765625 -15 L 21.71875 -15 L 16.859375 -32.140625 L 16.578125 -32.140625 Z M 11.765625 -15 "/></g></g></g><g fill="#000000" fill-opacity="1"><g transform="translate(393.719461, 1079.686183)"><g><path d="M 1.984375 0 L 1.984375 -7.578125 L 20.9375 -31.859375 L 20.9375 -32.640625 L 2.203125 -32.640625 L 2.203125 -39.609375 L 30.828125 -39.609375 L 30.828125 -31.96875 L 11.875 -7.859375 L 11.875 -6.953125 L 31.171875 -6.953125 L 31.171875 0 Z M 1.984375 0 "/></g></g></g><g fill="#000000" fill-opacity="1"><g transform="translate(427.443299, 1079.686183)"><g><path d="M 2.65625 0 L 2.65625 -39.609375 L 28 -39.609375 L 28 -32.3125 L 10.859375 -32.3125 L 10.859375 -23.140625 L 21.609375 -23.140625 L 21.609375 -16.46875 L 10.859375 -16.46875 L 10.859375 -7.296875 L 28.34375 -7.296875 L 28.34375 0 Z M 2.65625 0 "/></g></g></g><g fill="#000000" fill-opacity="1"><g transform="translate(458.281314, 1079.686183)"><g><path d="M 3.109375 0 L 3.109375 -39.609375 L 17.375 -39.609375 C 19.894531 -39.609375 22.15625 -39.125 24.15625 -38.15625 C 26.15625 -37.195312 27.726562 -35.726562 28.875 -33.75 C 30.03125 -31.769531 30.609375 -29.210938 30.609375 -26.078125 C 30.609375 -22.984375 30.015625 -20.457031 28.828125 -18.5 C 27.640625 -16.539062 26.023438 -15.125 23.984375 -14.25 L 32.140625 0 L 23.984375 0 L 16.859375 -12.609375 L 11.3125 -12.609375 L 11.3125 0 Z M 11.3125 -19.46875 L 16.796875 -19.46875 C 18.765625 -19.46875 20.300781 -20.019531 21.40625 -21.125 C 22.519531 -22.238281 23.078125 -23.890625 23.078125 -26.078125 C 23.078125 -28.304688 22.519531 -29.976562 21.40625 -31.09375 C 20.300781 -32.207031 18.75 -32.765625 16.75 -32.765625 L 11.3125 -32.765625 Z M 11.3125 -19.46875 "/></g></g></g><g fill="#000000" fill-opacity="1"><g transform="translate(491.382729, 1079.686183)"><g><path d="M -0.109375 0 L 11.484375 -39.609375 L 22.171875 -39.609375 L 34.40625 0 L 25.96875 0 L 23.359375 -8.65625 L 10.125 -8.65625 L 7.46875 0 Z M 11.765625 -15 L 21.71875 -15 L 16.859375 -32.140625 L 16.578125 -32.140625 Z M 11.765625 -15 "/></g></g></g><g fill="#000000" fill-opacity="1"><g transform="translate(526.294781, 1079.686183)"><g/></g></g><g fill="#000000" fill-opacity="1"><g transform="translate(537.894424, 1079.686183)"><g><path d="M 18.84375 0.796875 C 15.78125 0.796875 12.957031 0.0390625 10.375 -1.46875 C 7.789062 -2.976562 5.71875 -5.238281 4.15625 -8.25 C 2.59375 -11.269531 1.8125 -15.046875 1.8125 -19.578125 C 1.8125 -24.023438 2.582031 -27.796875 4.125 -30.890625 C 5.675781 -33.984375 7.742188 -36.335938 10.328125 -37.953125 C 12.910156 -39.578125 15.765625 -40.390625 18.890625 -40.390625 C 22.328125 -40.390625 25.476562 -39.882812 28.34375 -38.875 L 28.34375 -31.625 C 27.289062 -32.039062 26.113281 -32.367188 24.8125 -32.609375 C 23.507812 -32.859375 22.03125 -32.984375 20.375 -32.984375 C 17.28125 -32.941406 14.710938 -31.789062 12.671875 -29.53125 C 10.640625 -27.269531 9.625 -23.953125 9.625 -19.578125 C 9.625 -15.347656 10.59375 -12.148438 12.53125 -9.984375 C 14.476562 -7.816406 17.015625 -6.710938 20.140625 -6.671875 C 23.273438 -6.671875 26.007812 -7.144531 28.34375 -8.09375 L 28.34375 -0.671875 C 27.101562 -0.179688 25.648438 0.179688 23.984375 0.421875 C 22.328125 0.671875 20.613281 0.796875 18.84375 0.796875 Z M 18.84375 0.796875 "/></g></g></g><g fill="#000000" fill-opacity="1"><g transform="translate(568.279814, 1079.686183)"><g><path d="M 20.984375 0.671875 C 17.296875 0.671875 14.023438 -0.109375 11.171875 -1.671875 C 8.328125 -3.234375 6.101562 -5.519531 4.5 -8.53125 C 2.894531 -11.550781 2.09375 -15.25 2.09375 -19.625 C 2.09375 -23.925781 2.863281 -27.625 4.40625 -30.71875 C 5.957031 -33.8125 8.144531 -36.1875 10.96875 -37.84375 C 13.800781 -39.507812 17.140625 -40.34375 20.984375 -40.34375 C 24.835938 -40.34375 28.175781 -39.507812 31 -37.84375 C 33.832031 -36.1875 36.007812 -33.8125 37.53125 -30.71875 C 39.0625 -27.625 39.828125 -23.925781 39.828125 -19.625 C 39.828125 -15.25 39.023438 -11.550781 37.421875 -8.53125 C 35.816406 -5.519531 33.597656 -3.234375 30.765625 -1.671875 C 27.941406 -0.109375 24.679688 0.671875 20.984375 0.671875 Z M 20.984375 -6.796875 C 24.460938 -6.796875 27.171875 -7.9375 29.109375 -10.21875 C 31.046875 -12.5 32.015625 -15.632812 32.015625 -19.625 C 32.015625 -23.738281 31.046875 -26.984375 29.109375 -29.359375 C 27.171875 -31.734375 24.460938 -32.921875 20.984375 -32.921875 C 17.515625 -32.921875 14.800781 -31.734375 12.84375 -29.359375 C 10.882812 -26.984375 9.90625 -23.738281 9.90625 -19.625 C 9.90625 -15.632812 10.882812 -12.5 12.84375 -10.21875 C 14.800781 -7.9375 17.515625 -6.796875 20.984375 -6.796875 Z M 20.984375 -6.796875 "/></g></g></g><g fill="#000000" fill-opacity="1"><g transform="translate(610.830686, 1079.686183)"><g><path d="M 2.265625 0 L 2.265625 -39.609375 L 10.921875 -39.609375 L 25.515625 -13.234375 L 25.796875 -13.234375 L 25.796875 -39.609375 L 33.609375 -39.609375 L 33.609375 0 L 25.34375 0 L 10.75 -24.890625 L 10.53125 -24.890625 L 10.53125 0 Z M 2.265625 0 "/></g></g></g><g fill="#000000" fill-opacity="1"><g transform="translate(647.270502, 1079.686183)"><g><path d="M 11.59375 0 L 11.59375 -32.59375 L 0.84375 -32.59375 L 0.84375 -39.609375 L 30.546875 -39.609375 L 30.546875 -32.59375 L 19.796875 -32.59375 L 19.796875 0 Z M 11.59375 0 "/></g></g></g><g fill="#000000" fill-opacity="1"><g transform="translate(679.24024, 1079.686183)"><g><path d="M 3.109375 0 L 3.109375 -39.609375 L 17.375 -39.609375 C 19.894531 -39.609375 22.15625 -39.125 24.15625 -38.15625 C 26.15625 -37.195312 27.726562 -35.726562 28.875 -33.75 C 30.03125 -31.769531 30.609375 -29.210938 30.609375 -26.078125 C 30.609375 -22.984375 30.015625 -20.457031 28.828125 -18.5 C 27.640625 -16.539062 26.023438 -15.125 23.984375 -14.25 L 32.140625 0 L 23.984375 0 L 16.859375 -12.609375 L 11.3125 -12.609375 L 11.3125 0 Z M 11.3125 -19.46875 L 16.796875 -19.46875 C 18.765625 -19.46875 20.300781 -20.019531 21.40625 -21.125 C 22.519531 -22.238281 23.078125 -23.890625 23.078125 -26.078125 C 23.078125 -28.304688 22.519531 -29.976562 21.40625 -31.09375 C 20.300781 -32.207031 18.75 -32.765625 16.75 -32.765625 L 11.3125 -32.765625 Z M 11.3125 -19.46875 "/></g></g></g><g fill="#000000" fill-opacity="1"><g transform="translate(712.34161, 1079.686183)"><g><path d="M -0.109375 0 L 11.484375 -39.609375 L 22.171875 -39.609375 L 34.40625 0 L 25.96875 0 L 23.359375 -8.65625 L 10.125 -8.65625 L 7.46875 0 Z M 11.765625 -15 L 21.71875 -15 L 16.859375 -32.140625 L 16.578125 -32.140625 Z M 11.765625 -15 "/></g></g></g><g fill="#000000" fill-opacity="1"><g transform="translate(747.253662, 1079.686183)"><g><path d="M 18.84375 0.796875 C 15.78125 0.796875 12.957031 0.0390625 10.375 -1.46875 C 7.789062 -2.976562 5.71875 -5.238281 4.15625 -8.25 C 2.59375 -11.269531 1.8125 -15.046875 1.8125 -19.578125 C 1.8125 -24.023438 2.582031 -27.796875 4.125 -30.890625 C 5.675781 -33.984375 7.742188 -36.335938 10.328125 -37.953125 C 12.910156 -39.578125 15.765625 -40.390625 18.890625 -40.390625 C 22.328125 -40.390625 25.476562 -39.882812 28.34375 -38.875 L 28.34375 -31.625 C 27.289062 -32.039062 26.113281 -32.367188 24.8125 -32.609375 C 23.507812 -32.859375 22.03125 -32.984375 20.375 -32.984375 C 17.28125 -32.941406 14.710938 -31.789062 12.671875 -29.53125 C 10.640625 -27.269531 9.625 -23.953125 9.625 -19.578125 C 9.625 -15.347656 10.59375 -12.148438 12.53125 -9.984375 C 14.476562 -7.816406 17.015625 -6.710938 20.140625 -6.671875 C 23.273438 -6.671875 26.007812 -7.144531 28.34375 -8.09375 L 28.34375 -0.671875 C 27.101562 -0.179688 25.648438 0.179688 23.984375 0.421875 C 22.328125 0.671875 20.613281 0.796875 18.84375 0.796875 Z M 18.84375 0.796875 "/></g></g></g><g fill="#000000" fill-opacity="1"><g transform="translate(777.639052, 1079.686183)"><g><path d="M 11.59375 0 L 11.59375 -32.59375 L 0.84375 -32.59375 L 0.84375 -39.609375 L 30.546875 -39.609375 L 30.546875 -32.59375 L 19.796875 -32.59375 L 19.796875 0 Z M 11.59375 0 "/></g></g></g><g fill="#000000" fill-opacity="1"><g transform="translate(809.60879, 1079.686183)"><g><path d="M 2.890625 0 L 2.890625 -39.609375 L 11.140625 -39.609375 L 11.140625 0 Z M 2.890625 0 "/></g></g></g><g fill="#000000" fill-opacity="1"><g transform="translate(824.207332, 1079.686183)"><g><path d="M 2.265625 0 L 2.265625 -39.609375 L 10.921875 -39.609375 L 25.515625 -13.234375 L 25.796875 -13.234375 L 25.796875 -39.609375 L 33.609375 -39.609375 L 33.609375 0 L 25.34375 0 L 10.75 -24.890625 L 10.53125 -24.890625 L 10.53125 0 Z M 2.265625 0 "/></g></g></g><g fill="#000000" fill-opacity="1"><g transform="translate(860.647148, 1079.686183)"><g><path d="M 20.53125 0.796875 C 17.0625 0.796875 13.953125 0.109375 11.203125 -1.265625 C 8.453125 -2.648438 6.273438 -4.820312 4.671875 -7.78125 C 3.066406 -10.738281 2.265625 -14.59375 2.265625 -19.34375 C 2.265625 -23.757812 3.054688 -27.53125 4.640625 -30.65625 C 6.222656 -33.789062 8.457031 -36.195312 11.34375 -37.875 C 14.226562 -39.550781 17.613281 -40.390625 21.5 -40.390625 C 23.039062 -40.390625 24.507812 -40.265625 25.90625 -40.015625 C 27.300781 -39.773438 28.695312 -39.394531 30.09375 -38.875 L 30.09375 -31.734375 C 28.925781 -32.222656 27.71875 -32.570312 26.46875 -32.78125 C 25.226562 -32.988281 23.851562 -33.09375 22.34375 -33.09375 C 18.457031 -33.09375 15.441406 -31.90625 13.296875 -29.53125 C 11.148438 -27.15625 10.078125 -23.722656 10.078125 -19.234375 C 10.078125 -16.140625 10.453125 -13.695312 11.203125 -11.90625 C 11.953125 -10.113281 13.070312 -8.835938 14.5625 -8.078125 C 16.050781 -7.328125 17.890625 -6.953125 20.078125 -6.953125 C 20.835938 -6.953125 21.601562 -6.988281 22.375 -7.0625 C 23.144531 -7.144531 23.796875 -7.257812 24.328125 -7.40625 L 24.328125 -14.375 L 17.09375 -14.375 L 17.09375 -20.421875 L 31.171875 -20.421875 L 31.171875 -1.53125 C 29.742188 -0.695312 28.140625 -0.101562 26.359375 0.25 C 24.585938 0.613281 22.644531 0.796875 20.53125 0.796875 Z M 20.53125 0.796875 "/></g></g></g></svg>