<svg xmlns="http://www.w3.org/2000/svg" xmlns:xlink="http://www.w3.org/1999/xlink" width="2000" zoomAndPan="magnify" viewBox="0 0 1500 1499.999933" height="2000" preserveAspectRatio="xMidYMid meet" version="1.0"><rect x="-150" width="1800" fill="#ffffff" y="-149.999993" height="1799.99992" fill-opacity="1"/><rect x="-150" width="1800" fill="#ffffff" y="-149.999993" height="1799.99992" fill-opacity="1"/><path stroke-linecap="butt" transform="matrix(2.22919, 0, 0, 2.22919, 0.0111902, -0.00002)" fill-opacity="1" fill="#ffffff" fill-rule="nonzero" stroke-linejoin="miter" d="M 0.499648 0.49942 L 672.380369 0.49942 L 672.380369 672.390655 L 0.499648 672.390655 Z M 0.499648 0.49942 " stroke="#00bbbe" stroke-width="1" stroke-opacity="1" stroke-miterlimit="10"/><path stroke-linecap="butt" transform="matrix(2.22919, 0, 0, 2.22919, 0.0111902, -0.00002)" fill-opacity="1" fill="#00bbbe" fill-rule="nonzero" stroke-linejoin="miter" d="M 530.230592 128.140004 L 478.179743 180.21013 L 426.109618 232.259227 L 426.109618 180.190854 L 478.179743 128.140004 Z M 530.230592 128.140004 " stroke="#00bbbe" stroke-width="1" stroke-opacity="1" stroke-miterlimit="10"/><path stroke-linecap="butt" transform="matrix(2.22919, 0, 0, 2.22919, 0.0111902, -0.00002)" fill-opacity="1" fill="#00bbbe" fill-rule="nonzero" stroke-linejoin="miter" d="M 530.260382 388.529181 L 530.260382 440.599306 L 478.179743 492.679945 L 426.090342 544.75007 L 321.960606 544.75007 L 374.039493 492.679945 L 426.090342 492.679945 L 426.090342 492.720248 L 426.109618 492.69922 L 426.130645 492.679945 L 478.179743 440.599306 L 478.179743 284.359141 L 426.130645 284.359141 L 478.179743 232.310044 L 478.179743 232.290768 L 478.209532 232.290768 L 530.230592 180.229405 L 530.230592 388.529181 Z M 530.260382 388.529181 " stroke="#00bbbe" stroke-width="1" stroke-opacity="1" stroke-miterlimit="10"/><path stroke-linecap="butt" transform="matrix(2.22919, 0, 0, 2.22919, 0.0111902, -0.00002)" fill-opacity="1" fill="#00bbbe" fill-rule="nonzero" stroke-linejoin="miter" d="M 374.009703 128.140004 L 374.009703 232.310044 L 321.960606 284.359141 L 321.939578 284.359141 L 321.939578 284.380169 L 374.009703 284.380169 L 374.009703 440.599306 L 321.960606 492.679945 L 321.939578 492.679945 L 321.939578 492.69922 L 269.860691 544.75007 L 165.720441 544.75007 L 217.790566 492.69922 L 269.839664 492.69922 L 321.939578 440.599306 L 321.939578 336.460808 L 217.790566 336.460808 L 269.860691 284.380169 L 269.890481 284.359141 L 321.939578 232.310044 L 321.939578 180.21013 L 165.690652 180.21013 L 217.790566 128.140004 Z M 374.009703 128.140004 " stroke="#00bbbe" stroke-width="1" stroke-opacity="1" stroke-miterlimit="10"/><path stroke-linecap="butt" transform="matrix(2.22919, 0, 0, 2.22919, 0.0111902, -0.00002)" fill-opacity="1" fill="#00bbbe" fill-rule="nonzero" stroke-linejoin="miter" d="M 165.690652 180.21013 L 165.690652 492.69922 L 113.639802 544.730794 L 113.639802 232.310044 L 113.669592 232.290768 Z M 165.690652 180.21013 " stroke="#00bbbe" stroke-width="1" stroke-opacity="1" stroke-miterlimit="10"/><path stroke-linecap="butt" transform="matrix(2.22919, 0, 0, 2.22919, 0.0111902, -0.00002)" fill="none" stroke-linejoin="miter" d="M 165.690652 0.49942 L 165.690652 672.390655 " stroke="#00bbbe" stroke-width="1" stroke-opacity="1" stroke-miterlimit="10"/><path stroke-linecap="butt" transform="matrix(2.22919, 0, 0, 2.22919, 0.0111902, -0.00002)" fill="none" stroke-linejoin="miter" d="M 658.109492 0.49942 L 537.730513 120.829334 L 530.409329 128.140004 L 530.260382 128.290704 L 522.909408 135.639925 L 485.679663 172.850395 L 470.820008 187.71005 L 433.609538 224.899492 L 418.749883 239.759147 L 381.509624 276.980131 L 374.009703 284.480051 L 366.599151 291.880089 L 329.439498 329.029228 L 321.999157 336.460808 L 314.499236 343.960728 L 173.190572 485.209814 L 165.699413 492.69922 L 165.690652 492.69922 L 165.690652 492.709734 L 158.190731 500.199141 L 121.139723 537.229122 L 121.139723 537.239636 L 113.639802 544.730794 L 113.639802 544.75007 L 113.629288 544.75007 L 106.139882 552.230715 L 0.499648 657.830646 " stroke="#00bbbe" stroke-width="1" stroke-opacity="1" stroke-miterlimit="10"/><path stroke-linecap="butt" transform="matrix(2.22919, 0, 0, 2.22919, 0.0111902, -0.00002)" fill="none" stroke-linejoin="miter" d="M 113.639802 672.390655 L 113.639802 0.49942 " stroke="#00bbbe" stroke-width="1" stroke-opacity="1" stroke-miterlimit="10"/><path stroke-linecap="butt" transform="matrix(2.22919, 0, 0, 2.22919, 0.0111902, -0.00002)" fill="none" stroke-linejoin="miter" d="M 345.250662 0.49942 L 321.939578 23.829779 L 225.20988 120.640084 L 217.720474 128.140004 L 210.290646 135.580346 L 173.190572 172.710209 L 165.690652 180.21013 L 158.199493 187.71005 L 152.439624 193.469919 L 121.160751 224.790848 L 121.150237 224.790848 L 121.139723 224.810124 L 121.129209 224.810124 L 113.639802 232.310044 L 106.169671 239.780175 L 106.169671 239.790689 L 106.139882 239.809964 L 61.609981 284.380169 L 9.580159 336.460808 L 0.499648 345.550081 " stroke="#00bbbe" stroke-width="1" stroke-opacity="1" stroke-miterlimit="10"/><path stroke-linecap="butt" transform="matrix(2.22919, 0, 0, 2.22919, 0.0111902, -0.00002)" fill="none" stroke-linejoin="miter" d="M 374.009703 672.390655 L 374.009703 0.49942 " stroke="#00bbbe" stroke-width="1" stroke-opacity="1" stroke-miterlimit="10"/><path stroke-linecap="butt" transform="matrix(2.22919, 0, 0, 2.22919, 0.0111902, -0.00002)" fill="none" stroke-linejoin="miter" d="M 605.820328 0.49942 L 426.109618 180.21013 L 418.630725 187.690774 L 381.509624 224.810124 L 321.939578 284.380169 L 314.460685 291.860814 L 314.439658 291.880089 L 269.860691 336.460808 L 165.690652 440.630848 L 113.639802 492.679945 L 0.499648 605.820099 " stroke="#00bbbe" stroke-width="1" stroke-opacity="1" stroke-miterlimit="10"/><path stroke-linecap="butt" transform="matrix(2.22919, 0, 0, 2.22919, 0.0111902, -0.00002)" fill="none" stroke-linejoin="miter" d="M 672.380369 284.380169 L 0.499648 284.380169 " stroke="#00bbbe" stroke-width="1" stroke-opacity="1" stroke-miterlimit="10"/><path stroke-linecap="butt" transform="matrix(2.22919, 0, 0, 2.22919, 0.0111902, -0.00002)" fill="none" stroke-linejoin="miter" d="M 142.319989 672.390655 L 165.690652 649.009478 L 262.409836 552.24999 L 277.360612 537.299214 L 314.439658 500.199141 L 314.460685 500.179865 L 321.939578 492.69922 L 321.960606 492.679945 L 329.430737 485.1993 L 329.439498 485.1993 L 329.439498 485.190538 L 329.450012 485.180024 L 329.460526 485.180024 L 366.509783 448.099226 L 366.520297 448.099226 L 374.009703 440.60982 L 374.009703 440.599306 L 381.509624 433.099385 L 426.109618 388.480116 L 478.10965 336.460808 L 478.179743 336.390715 L 530.169261 284.380169 L 530.230592 284.32059 L 530.260382 284.290801 L 634.290236 180.21013 L 672.380369 142.109482 " stroke="#00bbbe" stroke-width="1" stroke-opacity="1" stroke-miterlimit="10"/><path stroke-linecap="butt" transform="matrix(2.22919, 0, 0, 2.22919, 0.0111902, -0.00002)" fill="none" stroke-linejoin="miter" d="M 0.499648 544.75007 L 672.380369 544.75007 " stroke="#00bbbe" stroke-width="1" stroke-opacity="1" stroke-miterlimit="10"/><path stroke-linecap="butt" transform="matrix(2.22919, 0, 0, 2.22919, 0.0111902, -0.00002)" fill="none" stroke-linejoin="miter" d="M 672.380369 38.30042 L 582.500482 128.140004 L 537.730513 172.899459 L 530.409329 180.21013 L 530.260382 180.360829 L 530.230592 180.390618 L 522.890133 187.729325 L 485.709452 224.89073 L 470.790218 239.809964 L 433.630566 276.950341 L 426.220014 284.359141 L 426.200738 284.380169 L 426.109618 284.469537 L 418.720093 291.860814 L 374.100824 336.460808 L 374.009703 336.550176 L 321.939578 388.590512 L 225.290487 485.1993 L 210.290646 500.199141 L 173.220362 537.250149 L 165.690652 544.779859 L 158.220521 552.239476 L 158.220521 552.24999 L 113.639802 596.809681 L 38.020278 672.390655 " stroke="#00bbbe" stroke-width="1" stroke-opacity="1" stroke-miterlimit="10"/><path stroke-linecap="butt" transform="matrix(2.22919, 0, 0, 2.22919, 0.0111902, -0.00002)" fill="none" stroke-linejoin="miter" d="M 672.380369 492.69922 L 0.499648 492.69922 " stroke="#00bbbe" stroke-width="1" stroke-opacity="1" stroke-miterlimit="10"/><path stroke-linecap="butt" transform="matrix(2.22919, 0, 0, 2.22919, 0.0111902, -0.00002)" fill="none" stroke-linejoin="miter" d="M 90.149981 672.390655 L 217.790566 544.75007 L 262.339743 500.199141 L 374.009703 388.529181 L 426.079828 336.460808 L 426.109618 336.429266 L 470.679822 291.860814 L 478.160467 284.380169 L 478.179743 284.359141 L 485.679663 276.859221 L 530.230592 232.310044 L 672.380369 90.160267 " stroke="#00bbbe" stroke-width="1" stroke-opacity="1" stroke-miterlimit="10"/><path stroke-linecap="butt" transform="matrix(2.22919, 0, 0, 2.22919, 0.0111902, -0.00002)" fill="none" stroke-linejoin="miter" d="M 321.939578 672.390655 L 321.939578 0.49942 " stroke="#00bbbe" stroke-width="1" stroke-opacity="1" stroke-miterlimit="10"/><path stroke-linecap="butt" transform="matrix(2.22919, 0, 0, 2.22919, 0.0111902, -0.00002)" fill="none" stroke-linejoin="miter" d="M 0.499648 336.460808 L 672.380369 336.460808 " stroke="#00bbbe" stroke-width="1" stroke-opacity="1" stroke-miterlimit="10"/><path stroke-linecap="butt" transform="matrix(2.22919, 0, 0, 2.22919, 0.0111902, -0.00002)" fill="none" stroke-linejoin="miter" d="M 553.739689 0.49942 L 530.260382 23.980479 L 478.179743 76.059365 L 426.109618 128.129491 L 426.109618 128.140004 L 426.100856 128.140004 L 374.030731 180.21013 L 374.009703 180.229405 L 329.439498 224.810124 L 277.390401 276.859221 L 277.360612 276.880249 L 277.360612 276.890763 L 269.869453 284.380169 L 269.860691 284.380169 L 262.39056 291.8503 L 262.39056 291.860814 L 262.369533 291.880089 L 262.360771 291.880089 L 225.290487 328.959135 L 217.790566 336.460808 L 165.690652 388.560722 L 113.639802 440.60982 L 0.499648 553.749974 " stroke="#00bbbe" stroke-width="1" stroke-opacity="1" stroke-miterlimit="10"/><path stroke-linecap="butt" transform="matrix(2.22919, 0, 0, 2.22919, 0.0111902, -0.00002)" fill="none" stroke-linejoin="miter" d="M 672.380369 180.21013 L 0.499648 180.21013 " stroke="#00bbbe" stroke-width="1" stroke-opacity="1" stroke-miterlimit="10"/><path stroke-linecap="butt" transform="matrix(2.22919, 0, 0, 2.22919, 0.0111902, -0.00002)" fill="none" stroke-linejoin="miter" d="M 672.380369 128.140004 L 0.499648 128.140004 " stroke="#00bbbe" stroke-width="1" stroke-opacity="1" stroke-miterlimit="10"/><path stroke-linecap="butt" transform="matrix(2.22919, 0, 0, 2.22919, 0.0111902, -0.00002)" fill="none" stroke-linejoin="miter" d="M 530.260382 0.49942 L 530.260382 672.390655 " stroke="#00bbbe" stroke-width="1" stroke-opacity="1" stroke-miterlimit="10"/><path stroke-linecap="butt" transform="matrix(2.22919, 0, 0, 2.22919, 0.0111902, -0.00002)" fill="none" stroke-linejoin="miter" d="M 298.470785 672.390655 L 321.939578 648.920109 L 537.760302 433.099385 L 634.400632 336.460808 L 672.380369 298.479318 " stroke="#00bbbe" stroke-width="1" stroke-opacity="1" stroke-miterlimit="10"/><path stroke-linecap="butt" transform="matrix(2.22919, 0, 0, 2.22919, 0.0111902, -0.00002)" fill="none" stroke-linejoin="miter" d="M 672.380369 194.330307 L 530.260382 336.450294 L 530.260382 336.460808 L 530.249868 336.460808 L 530.230592 336.480083 L 478.179743 388.529181 L 426.109618 440.599306 L 381.539413 485.180024 L 381.530651 485.180024 L 374.039493 492.679945 L 374.020217 492.69922 L 374.009703 492.69922 L 374.009703 492.709734 L 366.539572 500.169351 L 366.539572 500.179865 L 329.460526 537.250149 L 321.960606 544.75007 L 321.939578 544.769345 L 314.460685 552.24999 L 194.320021 672.390655 " stroke="#00bbbe" stroke-width="1" stroke-opacity="1" stroke-miterlimit="10"/><path stroke-linecap="butt" transform="matrix(2.22919, 0, 0, 2.22919, 0.0111902, -0.00002)" fill="none" stroke-linejoin="miter" d="M 246.500542 672.390655 L 321.939578 596.909563 L 374.009703 544.820163 L 374.079796 544.75007 L 418.590422 500.220169 L 418.609697 500.199141 L 418.630725 500.179865 L 426.090342 492.720248 L 426.109618 492.69922 L 433.590263 485.220328 L 433.609538 485.1993 L 433.630566 485.180024 L 470.690336 448.099226 L 478.179743 440.60982 L 478.179743 440.599306 L 485.679663 433.109899 L 485.679663 433.099385 L 522.730672 396.030853 L 522.739433 396.030853 L 522.760461 396.009826 L 530.230592 388.529181 L 530.239354 388.529181 L 530.260382 388.509905 L 537.730513 381.02926 L 582.279689 336.460808 L 634.339301 284.380169 L 672.380369 246.330339 " stroke="#00bbbe" stroke-width="1" stroke-opacity="1" stroke-miterlimit="10"/><path stroke-linecap="butt" transform="matrix(2.22919, 0, 0, 2.22919, 0.0111902, -0.00002)" fill="none" stroke-linejoin="miter" d="M 478.179743 672.390655 L 478.179743 0.49942 " stroke="#00bbbe" stroke-width="1" stroke-opacity="1" stroke-miterlimit="10"/><path stroke-linecap="butt" transform="matrix(2.22919, 0, 0, 2.22919, 0.0111902, -0.00002)" fill="none" stroke-linejoin="miter" d="M 426.109618 0.49942 L 426.109618 672.390655 " stroke="#00bbbe" stroke-width="1" stroke-opacity="1" stroke-miterlimit="10"/><path stroke-linecap="butt" transform="matrix(2.22919, 0, 0, 2.22919, 0.0111902, -0.00002)" fill="none" stroke-linejoin="miter" d="M 672.380369 672.390655 L 0.499648 672.390655 " stroke="#00bbbe" stroke-width="1" stroke-opacity="1" stroke-miterlimit="10"/><path stroke-linecap="butt" transform="matrix(2.22919, 0, 0, 2.22919, 0.0111902, -0.00002)" fill="none" stroke-linejoin="miter" d="M 0.499648 672.390655 L 0.499648 0.49942 " stroke="#00bbbe" stroke-width="1" stroke-opacity="1" stroke-miterlimit="10"/><path stroke-linecap="butt" transform="matrix(2.22919, 0, 0, 2.22919, 0.0111902, -0.00002)" fill="none" stroke-linejoin="miter" d="M 0.499648 0.49942 L 672.380369 0.49942 " stroke="#00bbbe" stroke-width="1" stroke-opacity="1" stroke-miterlimit="10"/><path stroke-linecap="butt" transform="matrix(2.22919, 0, 0, 2.22919, 0.0111902, -0.00002)" fill="none" stroke-linejoin="miter" d="M 672.380369 672.390655 L 672.380369 0.49942 " stroke="#00bbbe" stroke-width="1" stroke-opacity="1" stroke-miterlimit="10"/><path stroke-linecap="butt" transform="matrix(2.22919, 0, 0, 2.22919, 0.0111902, -0.00002)" fill-opacity="1" fill="#ffffff" fill-rule="nonzero" stroke-linejoin="miter" d="M 158.190731 172.710209 L 173.190572 172.710209 L 173.190572 187.71005 L 158.190731 187.71005 Z M 158.190731 172.710209 " stroke="#00bbbe" stroke-width="1" stroke-opacity="1" stroke-miterlimit="10"/><path stroke-linecap="butt" transform="matrix(2.22919, 0, 0, 2.22919, 0.0111902, -0.00002)" fill-opacity="1" fill="#ffffff" fill-rule="nonzero" stroke-linejoin="miter" d="M 158.190731 485.1993 L 173.190572 485.1993 L 173.190572 500.199141 L 158.190731 500.199141 Z M 158.190731 485.1993 " stroke="#00bbbe" stroke-width="1" stroke-opacity="1" stroke-miterlimit="10"/><path stroke-linecap="butt" transform="matrix(2.22919, 0, 0, 2.22919, 0.0111902, -0.00002)" fill-opacity="1" fill="#ffffff" fill-rule="nonzero" stroke-linejoin="miter" d="M 106.139882 537.229122 L 121.139723 537.229122 L 121.139723 552.230715 L 106.139882 552.230715 Z M 106.139882 537.229122 " stroke="#00bbbe" stroke-width="1" stroke-opacity="1" stroke-miterlimit="10"/><path stroke-linecap="butt" transform="matrix(2.22919, 0, 0, 2.22919, 0.0111902, -0.00002)" fill-opacity="1" fill="#ffffff" fill-rule="nonzero" stroke-linejoin="miter" d="M 106.139882 224.810124 L 121.139723 224.810124 L 121.139723 239.809964 L 106.139882 239.809964 Z M 106.139882 224.810124 " stroke="#00bbbe" stroke-width="1" stroke-opacity="1" stroke-miterlimit="10"/><path stroke-linecap="butt" transform="matrix(2.22919, 0, 0, 2.22919, 0.0111902, -0.00002)" fill-opacity="1" fill="#ffffff" fill-rule="nonzero" stroke-linejoin="miter" d="M 106.169671 224.790848 L 121.169512 224.790848 L 121.169512 239.790689 L 106.169671 239.790689 Z M 106.169671 224.790848 " stroke="#00bbbe" stroke-width="1" stroke-opacity="1" stroke-miterlimit="10"/><path stroke-linecap="butt" transform="matrix(2.22919, 0, 0, 2.22919, 0.0111902, -0.00002)" fill-opacity="1" fill="#ffffff" fill-rule="nonzero" stroke-linejoin="miter" d="M 366.509783 120.640084 L 381.509624 120.640084 L 381.509624 135.639925 L 366.509783 135.639925 Z M 366.509783 120.640084 " stroke="#00bbbe" stroke-width="1" stroke-opacity="1" stroke-miterlimit="10"/><path stroke-linecap="butt" transform="matrix(2.22919, 0, 0, 2.22919, 0.0111902, -0.00002)" fill-opacity="1" fill="#ffffff" fill-rule="nonzero" stroke-linejoin="miter" d="M 366.509783 224.810124 L 381.509624 224.810124 L 381.509624 239.809964 L 366.509783 239.809964 Z M 366.509783 224.810124 " stroke="#00bbbe" stroke-width="1" stroke-opacity="1" stroke-miterlimit="10"/><path stroke-linecap="butt" transform="matrix(2.22919, 0, 0, 2.22919, 0.0111902, -0.00002)" fill-opacity="1" fill="#ffffff" fill-rule="nonzero" stroke-linejoin="miter" d="M 314.460685 276.859221 L 329.460526 276.859221 L 329.460526 291.860814 L 314.460685 291.860814 Z M 314.460685 276.859221 " stroke="#00bbbe" stroke-width="1" stroke-opacity="1" stroke-miterlimit="10"/><path stroke-linecap="butt" transform="matrix(2.22919, 0, 0, 2.22919, 0.0111902, -0.00002)" fill-opacity="1" fill="#ffffff" fill-rule="nonzero" stroke-linejoin="miter" d="M 314.439658 276.859221 L 329.439498 276.859221 L 329.439498 291.860814 L 314.439658 291.860814 Z M 314.439658 276.859221 " stroke="#00bbbe" stroke-width="1" stroke-opacity="1" stroke-miterlimit="10"/><path stroke-linecap="butt" transform="matrix(2.22919, 0, 0, 2.22919, 0.0111902, -0.00002)" fill-opacity="1" fill="#ffffff" fill-rule="nonzero" stroke-linejoin="miter" d="M 314.439658 276.880249 L 329.439498 276.880249 L 329.439498 291.880089 L 314.439658 291.880089 Z M 314.439658 276.880249 " stroke="#00bbbe" stroke-width="1" stroke-opacity="1" stroke-miterlimit="10"/><path stroke-linecap="butt" transform="matrix(2.22919, 0, 0, 2.22919, 0.0111902, -0.00002)" fill-opacity="1" fill="#ffffff" fill-rule="nonzero" stroke-linejoin="miter" d="M 366.509783 276.880249 L 381.509624 276.880249 L 381.509624 291.880089 L 366.509783 291.880089 Z M 366.509783 276.880249 " stroke="#00bbbe" stroke-width="1" stroke-opacity="1" stroke-miterlimit="10"/><path stroke-linecap="butt" transform="matrix(2.22919, 0, 0, 2.22919, 0.0111902, -0.00002)" fill-opacity="1" fill="#ffffff" fill-rule="nonzero" stroke-linejoin="miter" d="M 366.509783 433.099385 L 381.509624 433.099385 L 381.509624 448.099226 L 366.509783 448.099226 Z M 366.509783 433.099385 " stroke="#00bbbe" stroke-width="1" stroke-opacity="1" stroke-miterlimit="10"/><path stroke-linecap="butt" transform="matrix(2.22919, 0, 0, 2.22919, 0.0111902, -0.00002)" fill-opacity="1" fill="#ffffff" fill-rule="nonzero" stroke-linejoin="miter" d="M 314.460685 485.180024 L 329.460526 485.180024 L 329.460526 500.179865 L 314.460685 500.179865 Z M 314.460685 485.180024 " stroke="#00bbbe" stroke-width="1" stroke-opacity="1" stroke-miterlimit="10"/><path stroke-linecap="butt" transform="matrix(2.22919, 0, 0, 2.22919, 0.0111902, -0.00002)" fill-opacity="1" fill="#ffffff" fill-rule="nonzero" stroke-linejoin="miter" d="M 314.439658 485.180024 L 329.439498 485.180024 L 329.439498 500.179865 L 314.439658 500.179865 Z M 314.439658 485.180024 " stroke="#00bbbe" stroke-width="1" stroke-opacity="1" stroke-miterlimit="10"/><path stroke-linecap="butt" transform="matrix(2.22919, 0, 0, 2.22919, 0.0111902, -0.00002)" fill-opacity="1" fill="#ffffff" fill-rule="nonzero" stroke-linejoin="miter" d="M 314.439658 485.1993 L 329.439498 485.1993 L 329.439498 500.199141 L 314.439658 500.199141 Z M 314.439658 485.1993 " stroke="#00bbbe" stroke-width="1" stroke-opacity="1" stroke-miterlimit="10"/><path stroke-linecap="butt" transform="matrix(2.22919, 0, 0, 2.22919, 0.0111902, -0.00002)" fill-opacity="1" fill="#ffffff" fill-rule="nonzero" stroke-linejoin="miter" d="M 262.360771 537.250149 L 277.360612 537.250149 L 277.360612 552.24999 L 262.360771 552.24999 Z M 262.360771 537.250149 " stroke="#00bbbe" stroke-width="1" stroke-opacity="1" stroke-miterlimit="10"/><path stroke-linecap="butt" transform="matrix(2.22919, 0, 0, 2.22919, 0.0111902, -0.00002)" fill-opacity="1" fill="#ffffff" fill-rule="nonzero" stroke-linejoin="miter" d="M 158.220521 537.250149 L 173.220362 537.250149 L 173.220362 552.24999 L 158.220521 552.24999 Z M 158.220521 537.250149 " stroke="#00bbbe" stroke-width="1" stroke-opacity="1" stroke-miterlimit="10"/><path stroke-linecap="butt" transform="matrix(2.22919, 0, 0, 2.22919, 0.0111902, -0.00002)" fill-opacity="1" fill="#ffffff" fill-rule="nonzero" stroke-linejoin="miter" d="M 210.290646 485.1993 L 225.290487 485.1993 L 225.290487 500.199141 L 210.290646 500.199141 Z M 210.290646 485.1993 " stroke="#00bbbe" stroke-width="1" stroke-opacity="1" stroke-miterlimit="10"/><path stroke-linecap="butt" transform="matrix(2.22919, 0, 0, 2.22919, 0.0111902, -0.00002)" fill-opacity="1" fill="#ffffff" fill-rule="nonzero" stroke-linejoin="miter" d="M 262.339743 485.1993 L 277.339584 485.1993 L 277.339584 500.199141 L 262.339743 500.199141 Z M 262.339743 485.1993 " stroke="#00bbbe" stroke-width="1" stroke-opacity="1" stroke-miterlimit="10"/><path stroke-linecap="butt" transform="matrix(2.22919, 0, 0, 2.22919, 0.0111902, -0.00002)" fill-opacity="1" fill="#ffffff" fill-rule="nonzero" stroke-linejoin="miter" d="M 314.439658 433.099385 L 329.439498 433.099385 L 329.439498 448.099226 L 314.439658 448.099226 Z M 314.439658 433.099385 " stroke="#00bbbe" stroke-width="1" stroke-opacity="1" stroke-miterlimit="10"/><path stroke-linecap="butt" transform="matrix(2.22919, 0, 0, 2.22919, 0.0111902, -0.00002)" fill-opacity="1" fill="#ffffff" fill-rule="nonzero" stroke-linejoin="miter" d="M 314.439658 328.959135 L 329.439498 328.959135 L 329.439498 343.960728 L 314.439658 343.960728 Z M 314.439658 328.959135 " stroke="#00bbbe" stroke-width="1" stroke-opacity="1" stroke-miterlimit="10"/><path stroke-linecap="butt" transform="matrix(2.22919, 0, 0, 2.22919, 0.0111902, -0.00002)" fill-opacity="1" fill="#ffffff" fill-rule="nonzero" stroke-linejoin="miter" d="M 210.290646 328.959135 L 225.290487 328.959135 L 225.290487 343.960728 L 210.290646 343.960728 Z M 210.290646 328.959135 " stroke="#00bbbe" stroke-width="1" stroke-opacity="1" stroke-miterlimit="10"/><path stroke-linecap="butt" transform="matrix(2.22919, 0, 0, 2.22919, 0.0111902, -0.00002)" fill-opacity="1" fill="#ffffff" fill-rule="nonzero" stroke-linejoin="miter" d="M 262.360771 276.880249 L 277.360612 276.880249 L 277.360612 291.880089 L 262.360771 291.880089 Z M 262.360771 276.880249 " stroke="#00bbbe" stroke-width="1" stroke-opacity="1" stroke-miterlimit="10"/><path stroke-linecap="butt" transform="matrix(2.22919, 0, 0, 2.22919, 0.0111902, -0.00002)" fill-opacity="1" fill="#ffffff" fill-rule="nonzero" stroke-linejoin="miter" d="M 262.39056 276.859221 L 277.390401 276.859221 L 277.390401 291.860814 L 262.39056 291.860814 Z M 262.39056 276.859221 " stroke="#00bbbe" stroke-width="1" stroke-opacity="1" stroke-miterlimit="10"/><path stroke-linecap="butt" transform="matrix(2.22919, 0, 0, 2.22919, 0.0111902, -0.00002)" fill-opacity="1" fill="#ffffff" fill-rule="nonzero" stroke-linejoin="miter" d="M 314.439658 224.810124 L 329.439498 224.810124 L 329.439498 239.809964 L 314.439658 239.809964 Z M 314.439658 224.810124 " stroke="#00bbbe" stroke-width="1" stroke-opacity="1" stroke-miterlimit="10"/><path stroke-linecap="butt" transform="matrix(2.22919, 0, 0, 2.22919, 0.0111902, -0.00002)" fill-opacity="1" fill="#ffffff" fill-rule="nonzero" stroke-linejoin="miter" d="M 314.439658 172.710209 L 329.439498 172.710209 L 329.439498 187.71005 L 314.439658 187.71005 Z M 314.439658 172.710209 " stroke="#00bbbe" stroke-width="1" stroke-opacity="1" stroke-miterlimit="10"/><path stroke-linecap="butt" transform="matrix(2.22919, 0, 0, 2.22919, 0.0111902, -0.00002)" fill-opacity="1" fill="#ffffff" fill-rule="nonzero" stroke-linejoin="miter" d="M 210.290646 120.640084 L 225.290487 120.640084 L 225.290487 135.639925 L 210.290646 135.639925 Z M 210.290646 120.640084 " stroke="#00bbbe" stroke-width="1" stroke-opacity="1" stroke-miterlimit="10"/><path stroke-linecap="butt" transform="matrix(2.22919, 0, 0, 2.22919, 0.0111902, -0.00002)" fill-opacity="1" fill="#ffffff" fill-rule="nonzero" stroke-linejoin="miter" d="M 522.760461 381.02926 L 537.760302 381.02926 L 537.760302 396.030853 L 522.760461 396.030853 Z M 522.760461 381.02926 " stroke="#00bbbe" stroke-width="1" stroke-opacity="1" stroke-miterlimit="10"/><path stroke-linecap="butt" transform="matrix(2.22919, 0, 0, 2.22919, 0.0111902, -0.00002)" fill-opacity="1" fill="#ffffff" fill-rule="nonzero" stroke-linejoin="miter" d="M 522.760461 433.099385 L 537.760302 433.099385 L 537.760302 448.099226 L 522.760461 448.099226 Z M 522.760461 433.099385 " stroke="#00bbbe" stroke-width="1" stroke-opacity="1" stroke-miterlimit="10"/><path stroke-linecap="butt" transform="matrix(2.22919, 0, 0, 2.22919, 0.0111902, -0.00002)" fill-opacity="1" fill="#ffffff" fill-rule="nonzero" stroke-linejoin="miter" d="M 470.679822 485.180024 L 485.679663 485.180024 L 485.679663 500.179865 L 470.679822 500.179865 Z M 470.679822 485.180024 " stroke="#00bbbe" stroke-width="1" stroke-opacity="1" stroke-miterlimit="10"/><path stroke-linecap="butt" transform="matrix(2.22919, 0, 0, 2.22919, 0.0111902, -0.00002)" fill-opacity="1" fill="#ffffff" fill-rule="nonzero" stroke-linejoin="miter" d="M 418.590422 537.250149 L 433.590263 537.250149 L 433.590263 552.24999 L 418.590422 552.24999 Z M 418.590422 537.250149 " stroke="#00bbbe" stroke-width="1" stroke-opacity="1" stroke-miterlimit="10"/><path stroke-linecap="butt" transform="matrix(2.22919, 0, 0, 2.22919, 0.0111902, -0.00002)" fill-opacity="1" fill="#ffffff" fill-rule="nonzero" stroke-linejoin="miter" d="M 314.460685 537.250149 L 329.460526 537.250149 L 329.460526 552.24999 L 314.460685 552.24999 Z M 314.460685 537.250149 " stroke="#00bbbe" stroke-width="1" stroke-opacity="1" stroke-miterlimit="10"/><path stroke-linecap="butt" transform="matrix(2.22919, 0, 0, 2.22919, 0.0111902, -0.00002)" fill-opacity="1" fill="#ffffff" fill-rule="nonzero" stroke-linejoin="miter" d="M 366.539572 485.180024 L 381.539413 485.180024 L 381.539413 500.179865 L 366.539572 500.179865 Z M 366.539572 485.180024 " stroke="#00bbbe" stroke-width="1" stroke-opacity="1" stroke-miterlimit="10"/><path stroke-linecap="butt" transform="matrix(2.22919, 0, 0, 2.22919, 0.0111902, -0.00002)" fill-opacity="1" fill="#ffffff" fill-rule="nonzero" stroke-linejoin="miter" d="M 418.590422 485.180024 L 433.590263 485.180024 L 433.590263 500.179865 L 418.590422 500.179865 Z M 418.590422 485.180024 " stroke="#00bbbe" stroke-width="1" stroke-opacity="1" stroke-miterlimit="10"/><path stroke-linecap="butt" transform="matrix(2.22919, 0, 0, 2.22919, 0.0111902, -0.00002)" fill-opacity="1" fill="#ffffff" fill-rule="nonzero" stroke-linejoin="miter" d="M 418.590422 485.220328 L 433.590263 485.220328 L 433.590263 500.220169 L 418.590422 500.220169 Z M 418.590422 485.220328 " stroke="#00bbbe" stroke-width="1" stroke-opacity="1" stroke-miterlimit="10"/><path stroke-linecap="butt" transform="matrix(2.22919, 0, 0, 2.22919, 0.0111902, -0.00002)" fill-opacity="1" fill="#ffffff" fill-rule="nonzero" stroke-linejoin="miter" d="M 418.609697 485.1993 L 433.609538 485.1993 L 433.609538 500.199141 L 418.609697 500.199141 Z M 418.609697 485.1993 " stroke="#00bbbe" stroke-width="1" stroke-opacity="1" stroke-miterlimit="10"/><path stroke-linecap="butt" transform="matrix(2.22919, 0, 0, 2.22919, 0.0111902, -0.00002)" fill-opacity="1" fill="#ffffff" fill-rule="nonzero" stroke-linejoin="miter" d="M 418.630725 485.180024 L 433.630566 485.180024 L 433.630566 500.179865 L 418.630725 500.179865 Z M 418.630725 485.180024 " stroke="#00bbbe" stroke-width="1" stroke-opacity="1" stroke-miterlimit="10"/><path stroke-linecap="butt" transform="matrix(2.22919, 0, 0, 2.22919, 0.0111902, -0.00002)" fill-opacity="1" fill="#ffffff" fill-rule="nonzero" stroke-linejoin="miter" d="M 470.679822 433.099385 L 485.679663 433.099385 L 485.679663 448.099226 L 470.679822 448.099226 Z M 470.679822 433.099385 " stroke="#00bbbe" stroke-width="1" stroke-opacity="1" stroke-miterlimit="10"/><path stroke-linecap="butt" transform="matrix(2.22919, 0, 0, 2.22919, 0.0111902, -0.00002)" fill-opacity="1" fill="#ffffff" fill-rule="nonzero" stroke-linejoin="miter" d="M 470.679822 276.859221 L 485.679663 276.859221 L 485.679663 291.860814 L 470.679822 291.860814 Z M 470.679822 276.859221 " stroke="#00bbbe" stroke-width="1" stroke-opacity="1" stroke-miterlimit="10"/><path stroke-linecap="butt" transform="matrix(2.22919, 0, 0, 2.22919, 0.0111902, -0.00002)" fill-opacity="1" fill="#ffffff" fill-rule="nonzero" stroke-linejoin="miter" d="M 418.630725 276.859221 L 433.630566 276.859221 L 433.630566 291.860814 L 418.630725 291.860814 Z M 418.630725 276.859221 " stroke="#00bbbe" stroke-width="1" stroke-opacity="1" stroke-miterlimit="10"/><path stroke-linecap="butt" transform="matrix(2.22919, 0, 0, 2.22919, 0.0111902, -0.00002)" fill-opacity="1" fill="#ffffff" fill-rule="nonzero" stroke-linejoin="miter" d="M 470.679822 224.810124 L 485.679663 224.810124 L 485.679663 239.809964 L 470.679822 239.809964 Z M 470.679822 224.810124 " stroke="#00bbbe" stroke-width="1" stroke-opacity="1" stroke-miterlimit="10"/><path stroke-linecap="butt" transform="matrix(2.22919, 0, 0, 2.22919, 0.0111902, -0.00002)" fill-opacity="1" fill="#ffffff" fill-rule="nonzero" stroke-linejoin="miter" d="M 470.679822 224.790848 L 485.679663 224.790848 L 485.679663 239.790689 L 470.679822 239.790689 Z M 470.679822 224.790848 " stroke="#00bbbe" stroke-width="1" stroke-opacity="1" stroke-miterlimit="10"/><path stroke-linecap="butt" transform="matrix(2.22919, 0, 0, 2.22919, 0.0111902, -0.00002)" fill-opacity="1" fill="#ffffff" fill-rule="nonzero" stroke-linejoin="miter" d="M 470.709612 224.790848 L 485.709452 224.790848 L 485.709452 239.790689 L 470.709612 239.790689 Z M 470.709612 224.790848 " stroke="#00bbbe" stroke-width="1" stroke-opacity="1" stroke-miterlimit="10"/><path stroke-linecap="butt" transform="matrix(2.22919, 0, 0, 2.22919, 0.0111902, -0.00002)" fill-opacity="1" fill="#ffffff" fill-rule="nonzero" stroke-linejoin="miter" d="M 522.730672 172.729485 L 537.730513 172.729485 L 537.730513 187.729325 L 522.730672 187.729325 Z M 522.730672 172.729485 " stroke="#00bbbe" stroke-width="1" stroke-opacity="1" stroke-miterlimit="10"/><path stroke-linecap="butt" transform="matrix(2.22919, 0, 0, 2.22919, 0.0111902, -0.00002)" fill-opacity="1" fill="#ffffff" fill-rule="nonzero" stroke-linejoin="miter" d="M 522.730672 381.02926 L 537.730513 381.02926 L 537.730513 396.030853 L 522.730672 396.030853 Z M 522.730672 381.02926 " stroke="#00bbbe" stroke-width="1" stroke-opacity="1" stroke-miterlimit="10"/><path stroke-linecap="butt" transform="matrix(2.22919, 0, 0, 2.22919, 0.0111902, -0.00002)" fill-opacity="1" fill="#ffffff" fill-rule="nonzero" stroke-linejoin="miter" d="M 522.730672 120.640084 L 537.730513 120.640084 L 537.730513 135.639925 L 522.730672 135.639925 Z M 522.730672 120.640084 " stroke="#00bbbe" stroke-width="1" stroke-opacity="1" stroke-miterlimit="10"/><path stroke-linecap="butt" transform="matrix(2.22919, 0, 0, 2.22919, 0.0111902, -0.00002)" fill-opacity="1" fill="#ffffff" fill-rule="nonzero" stroke-linejoin="miter" d="M 470.679822 172.710209 L 485.679663 172.710209 L 485.679663 187.71005 L 470.679822 187.71005 Z M 470.679822 172.710209 " stroke="#00bbbe" stroke-width="1" stroke-opacity="1" stroke-miterlimit="10"/><path stroke-linecap="butt" transform="matrix(2.22919, 0, 0, 2.22919, 0.0111902, -0.00002)" fill-opacity="1" fill="#ffffff" fill-rule="nonzero" stroke-linejoin="miter" d="M 418.609697 224.759306 L 433.609538 224.759306 L 433.609538 239.759147 L 418.609697 239.759147 Z M 418.609697 224.759306 " stroke="#00bbbe" stroke-width="1" stroke-opacity="1" stroke-miterlimit="10"/><path stroke-linecap="butt" transform="matrix(2.22919, 0, 0, 2.22919, 0.0111902, -0.00002)" fill-opacity="1" fill="#ffffff" fill-rule="nonzero" stroke-linejoin="miter" d="M 418.609697 172.689181 L 433.609538 172.689181 L 433.609538 187.690774 L 418.609697 187.690774 Z M 418.609697 172.689181 " stroke="#00bbbe" stroke-width="1" stroke-opacity="1" stroke-miterlimit="10"/><path stroke-linecap="butt" transform="matrix(2.22919, 0, 0, 2.22919, 0.0111902, -0.00002)" fill-opacity="1" fill="#ffffff" fill-rule="nonzero" stroke-linejoin="miter" d="M 470.679822 120.640084 L 485.679663 120.640084 L 485.679663 135.639925 L 470.679822 135.639925 Z M 470.679822 120.640084 " stroke="#00bbbe" stroke-width="1" stroke-opacity="1" stroke-miterlimit="10"/><path stroke-linecap="butt" transform="matrix(2.22919, 0, 0, 2.22919, 0.0111902, -0.00002)" fill-opacity="1" fill="#ffffff" fill-rule="nonzero" stroke-linejoin="miter" d="M 664.880449 664.890734 L 672.380369 664.890734 L 672.380369 672.390655 L 664.880449 672.390655 Z M 664.880449 664.890734 " stroke="#00bbbe" stroke-width="1" stroke-opacity="1" stroke-miterlimit="10"/><path stroke-linecap="butt" transform="matrix(2.22919, 0, 0, 2.22919, 0.0111902, -0.00002)" fill-opacity="1" fill="#ffffff" fill-rule="nonzero" stroke-linejoin="miter" d="M 0.499648 664.890734 L 7.999568 664.890734 L 7.999568 672.390655 L 0.499648 672.390655 Z M 0.499648 664.890734 " stroke="#00bbbe" stroke-width="1" stroke-opacity="1" stroke-miterlimit="10"/><path stroke-linecap="butt" transform="matrix(2.22919, 0, 0, 2.22919, 0.0111902, -0.00002)" fill-opacity="1" fill="#ffffff" fill-rule="nonzero" stroke-linejoin="miter" d="M 0.499648 0.49942 L 7.999568 0.49942 L 7.999568 7.99934 L 0.499648 7.99934 Z M 0.499648 0.49942 " stroke="#00bbbe" stroke-width="1" stroke-opacity="1" stroke-miterlimit="10"/><path stroke-linecap="butt" transform="matrix(2.22919, 0, 0, 2.22919, 0.0111902, -0.00002)" fill-opacity="1" fill="#ffffff" fill-rule="nonzero" stroke-linejoin="miter" d="M 664.880449 0.49942 L 672.380369 0.49942 L 672.380369 7.99934 L 664.880449 7.99934 Z M 664.880449 0.49942 " stroke="#00bbbe" stroke-width="1" stroke-opacity="1" stroke-miterlimit="10"/></svg>